<mxfile host="app.diagrams.net" modified="2024-02-07T23:02:15.650Z" agent="Mozilla/5.0 (Windows NT 10.0; Win64; x64) AppleWebKit/537.36 (KHTML, like Gecko) Chrome/121.0.0.0 Safari/537.36" etag="NJ-RscFyIMtsAiFZ4Gse" version="23.1.1" type="device">
  <diagram name="Page-1" id="5xmmTehd3-Q5g6203RSa">
    <mxGraphModel dx="3116" dy="2360" grid="1" gridSize="10" guides="1" tooltips="1" connect="1" arrows="1" fold="1" page="1" pageScale="1" pageWidth="827" pageHeight="1169" math="0" shadow="0">
      <root>
        <mxCell id="0" />
        <mxCell id="1" parent="0" />
        <mxCell id="PjOMWeALQhQ13TzNTQMf-1" value="" style="shape=image;verticalLabelPosition=bottom;labelBackgroundColor=default;verticalAlign=top;aspect=fixed;imageAspect=0;image=data:image/png,iVBORw0KGgoAAAANSUhEUgAAArAAAALECAYAAADw9wNhAAAAAXNSR0IArs4c6QAAAARnQU1BAACxjwv8YQUAAAAJcEhZcwAADsMAAA7DAcdvqGQAAI4ASURBVHhe7f0LvCRlfeh71zCAICAXuclFuSlyG0RBhWwxMQKSfSIXEcwbwDeC+yCIiQyQfPaOASTZbzYw6tE33LzkI3BiVMLtnERAkx0xAspo5OJWIxd9dXEAlZszA8LM8PavVv2HZ56pXqt7re5aXat/Xz7Fqls/Vd3T9Tz/+tdT1QsmJiZeKCRJkqSWWK/6K0mSJLWCAawkSZJaxQBWkiRJrWIAK0mSpFYxgJUkSVKrGMBKkiSpVQxgJUmS1CoGsJIkSWoVA1hJkiS1igGsJEmSWsUAVpIkSa1iACtJkqRWMYCVJElSqxjASpIkqVUMYCVJktQqBrCSJElqFQNYSZIktYoBrCRJklrFAFaSJEmtYgArSZKkVjGAlSRJUqsYwEqSJKlVDGAlSZLUKgawkiRJahUDWEmSJLWKAawkSZJaxQBWkiRJrWIAK0mSpFYxgJUkSVKrGMBKkiSpVQxgJUmS1CoGsJIkSWoVA1hJkiS1igGsJEmSWsUAVpIkSa1iACtJkqRWWTAxMfFCNT5UX77v0WpMkpp1xKtfXrzsJetXU5KktmskgF21alWx28f/rZqSpGZdc+zexX/adetiwYIF1RxJUpsNPYB94YUXimeeeabY69K7qjmS1KzP/Ofdi9/dc4divfXsNaXh+Oj/fKC45f5fVVNSe/39u/crdt5i42pqdDWSgV2+fHmx92VLqylJataVR+5aHL73zmZgNRRcZTz7Kz8qrvvhL6o5Unv980n7F7tvu/nI15emIyTNe1TDXA2ShoHv1qrVq6opqd2ee+65amy0NRLA2nBImkvUQWZfJWn+aCSAteGQNKesgzRs5mmkRtmFQNK850m0hm5Mv2JbbLxBsf+OW1RTmhda8l02gB0hVAJH7bdj8dY9ti0rhV4dte+OxbXve0vxqq02qeYMB/vENvrZt35QLu99JpUh+xWfXd3nwLxhfz6p6fanF7wuPuthf/bznt2YpJ7s0qlnvnbG7xa/+Kvjiuc/9ged8bdNWYctOfr1xdLFR1ZTs3f/R95ZnHnontXUzPzFEfuV+//jP39ncfJBu1Zz10V9GuvyXpee/Y611udz4P0Nyoc67yu2Nd2+BT4LPpN8fJja0uVq6AEsH4R9YKe2/45blgcKlcC1f3Ro8bXTJyuPXg+ck964WyeI3amng2E22J/7OwfdOzvbGrSoRHjvfA69vveobNmv+OwY5/VpsPfZP3hzOX+mwWSv2Gbd/nyms/1+gk/2c7KMt5TTfEfSafXJDKyGbR40c2V92qmzXrXlJsVHb7m3OOuG7xa7bLlpOa9b/XXhzfcVB15yczU1e2y7n7oyR9LgI0fsW+7/Tff+fMq2ZMnRbyiDwk9+/YfFKV+4s7j750+UbcVbd9+2XL5LZ182n8W+pGif2Zervv1g8bt/88/Fbfc/uta2uuGz4DPJx4dpQee/NsRtQw9gieJ99mJ3UWHwJf565wvNQcfB9NPHl5dna599z5urNbs7+/rvlgffp77+o2pOu/AZUOH8pPOe3/W5bxQ3diod3vt0B/Z0n91nevjsBo0Kkf25e+KJ8t+EBoD9eW+n8vpIJ0jXHPFEWsM2D86RCOY4eX57J8D61G0/KgfGqcOiPiYDSP269Owjy/V/f7+din84ZfLEmmkytixnPU7c1yRozn5H8Redej6QtGAd5ucn+Lts1QmaSQR0lkcAGmXGegSqTOftxJPPTN5Bf9N9Py+eevb5zvTz5XSO1xNUfvTme4oLb72vuOquh4pT/v5bZftzUk0yiO2yL7HPacIo3iPLumWs2R77tvjG7xa3PfBYuS3aCNo99FJGKt+f9LMdF41EljYc3V3S+QLyRfzozfcWb7/0X4oLb7mv8wX/97LS4MA7+Y27rjlAywOuM836R3UqDYI+xl/18s4XvVN5bv7SDddZj3HWi4ONeVQyzOMSd471p1oeotyo8ALbjW0HAs2YXydef9VdD5aVzqe+MRmIT3cAExCyzuc7Z7R1nx2fUV655eJzzN9Hqpd1QnzOBOJUiDQABy65ea0GIKT/Fmll2I/4d2BgXPWog+wHq2Epv1vzoJkjiCIZ8NMnJoMq/KQz/vZL/7m48b6JcpoMIPUV9e49nRP1sg1KMoRv3X27cvrz336oPHHnqhFZx5/8anmnntqvXIcrhtRZZ13/3XL47U7dmAaNh3amec0nv/6jMnBl3Rs7bQPlxhVA/hJafL0TDKbunniy8x4eK6/kUb8e16mL6yzaYcvy79VLHyr/huP+9hvFqZ3gMkeQzTbZ36s67y2yp7Rv/9B5jz/tvL/3/d2dxZMrnu9s+x1rtYHgNVtsvGHZdYD9or6mjeCzjjLIAEcZU2W9wWfJvwP7w+d05qGv7bynAfVFbklVaWp0DvFl5kAGX+QUlcZxn7ttrTM0vqxkZC856vVlpcAZ7OadMmJ+BEjpehwErMfBxtka0x/r/GUel7jPPPQ15WvAvHw5B1t+EHEQR7msy/j+1YFz8oG7ldvev6ocQGXEvEN3qw+wqHDAZ0EFyroEoFRC3fDZ8T5B4Jriszu187mRkY2z8RwVBpVMfI68Dy7Rp59HL+vk4myf1wb2YY+/vKkMZAP9ln/850et+az59+Gzni5ATnG2Hv8ODIzz2ameJ9IalvK7NQ/Pj6hj6K/J8Jk/eFM1tyg+f9eD5cl5HjwisowXdupfTtxJTNC+XV21cbRZgSCO2J/68VO3/Uc1dzKZwWs+yTY67QBtA2Uxfmh1ok6gTLCdo+6N+pcuBHc//ETZVtQlENAtQ5uKtpr9eerZ58oyed079+u0WZ22jnr76w88Wr6Xq5c+WK5/aGf/UnxWB17ylbLrwB93Aljqa+5dYT+iDDKzlHHT939evodXTtFdIPab1xEEb/Pfri3ueXiyLZ2tF1a3o640gJ1DcbNSfsYb+MLHGVrqrXtsV2b46EfzVJcADaz3hs4BE2egnMlSAexx4U3F4hu+W84j8AEHHGe5BMvb/Ndriw3O+kJ5VkednPd5Jchk2/R7Yh0OtLjMw1kyOLBDjN9UncHnqPAoh3IJGKngystWNZ9JiM+OS/V167EfBLZ3dzmgOXtle2S+eb+v7nwmVJAfO/oNayq2XtbJ8T5QBpdnvK38TPPM6OTn9YbyffM58lnz78H8z77nxUZiKlSmVMh8d+Lfi39bttVEHylJ889PH19W1nlh8fXfKesogqWnkkAvHc91Cwif7AR+gfqZ5AyBG4EcJ++c1Ic08ZC/jrqPupI2IE/8gPK+12kXDuq0fbQ9XFqnvs2TA9TlyAPb8spdVmdHP9iyK9jh+5UDbQ/tZSw7+aDdyvlnvuW1ZV1c1zbTHtF1gICddpn3Qub5ldW+lVfkOmWQCKKMLZNgP8cJBFld9ik+w0gkzVZbrlY1EsB66a4/9GlJB77UqU/e9sPyUjtna1OdPRIUcUbGQR9ZTs6cCfg4kwSBK+IgLM8Gd9qy/MtZNAdaXkmwfbbNWSh9h9gHgmUqCM6ymY7sKDhT5kBnn+vENgNn35RNJUW3g7ziSaUVXT/YP/ap3P9nny+ztmRsEZeyelknd+Gt95YVcxlMdt53ZEbT7CoZacZ5n3yO4N+DfyM+x27BcerFf68N13x2XObj32uqwH+cWQ9JU4vL3NGfkoDrdZ2AljqJOm1QCJLJZFJncfJNQJzWqQR2YLuv6wS5Uc/TvrB/XF2kbo76M0UChDowrmKSiEC+/yRUaKtIMkSdy35xxe2kA9eu39k/1qUtZZ8Zrlo62eUtAmEyzsw/9e/vLD71jR+WbViKduBrp7+tmuKznVzO+6ErBhbf+J0py0gRZJOp5coeyRXayzRxNA7MwM6hOCgjiAz/+uNHy4E+Q2TT8oBmqrPfVN1ZLJ3a63AQfvTm+8p94UDjiQB0DCdrm0u3zzbiAN58ow3Kac5MKYczWw6yycpv3Us9gb5KrEv2krLYJsEjZ+d5d4RA5YVXbbVp+bcfEUhywMflMQYu44N972Wdbgj4qYTIjJIpJzClHPo4IcomuE3LjqxyeomtGypfKmQqXP69eD0Z3/TEQWuzC4GGah58vbjqRztA0EcbQAKFq2vUzd0SEDOxRaetoIsal9AZqPvSK3RlO9Spz+7qtA3Ul9wMC9oX6j2ypN3aFPaVNoTXLznm9Z3XPF+2QXk7SlmLb/hOmTSgOxfvlSuAtF9nV9sLrEuASp3N/nKFbclRbyj/zfnM2Cf6yJbLOvXxJZ1lbDfF6ye3NXnTFe+NdoyThigjPpNuZaSIDViP9T/z/5psl7gBbSBacq7fSAC7evXqakypnz6+ovyCEoREUAM6kDNEJo2DpwlkDzmTI4NIB/otNtqwrLw4Q+0HByroq8RlFdRd6gEVF++dyoiMb9zxynYj8/yTx5eVf1Osw2dHYJhfAkKZ+exUYHn3hxSVB5fH8uHqToUSelknsC9kjOPyE1lbKv0Dl3yl9t85HqeSD3FCMBW+EwTJrE/lTsVFxjduLNC6zMBqWMrv1jz5etEOUK9wpY0btRinbg5xhSncdO9EOS/GCQoDdRPzwIk863FpnYCNtoZgkYFtRBvBOuVNsJ06lqtULEv7dpIFRVxFzLH/vJ595EayV194Yzmd1r2BbbIfXFnjvb7rc7eVGU3qbrD/7AfYHvvC/lLf0p812mjqYto9lv0fnfXovpCL90w5vJ5tst50ZeSfb4zn+0PXwEH1gW3LyZhdCOYQQUgchGTn0gOMICiCr6gAhongi0A1+hXRTyf6yeb9atIsH6/jNbyXOHi47ETAVmZgO0O3Sz2pyGhy2YcgltaAz4DAtttBGZ8dwW7+2ZV9TzsBHQd3LoJfzsipPNg3Br6lBJk8zaGXdXJc1idjzCWodH/4jOLsn8r7tqryZ50ol2Hys1w321wn3iPl0ReKO2fj84ibHLQ2M7Aalvn23aI+4h4CBsZTtA8RdIHL3BF8Mp5mUjmBj8vgtBGsR70K6vq6bUT5/M2XkdTgBijq9amCNbbLa6kbI5HQ7R4M9oP1WD9fh9el24/PhfXTzwCxv7HNOum26tarKyP/fGMcU+3POBh6AMuBbcPRXfnF6wRLBC7c4U7WkEsZXBog6OEGoia+mFQqHzr0tcW17zu0vBRCRRE3ZuUHNZft2U/uSuUyCOLmJUxWVA92gqzJfrFUAt1wVs6ZMu+fSyuUyeWQCPjYVozn+Ox4fd1nh6k+O850y8tUnXUJBHmvvHcyt0+umMx497JOKt5LvCYuNaWfEZ9zXC7i82Edyma9yezpNuW60+ocUpOXsw5ds29rst012WF5Iq0hs5kbOvrG/uv9j5YZVWnoAayNxtQI9rhkQb8jAlmyhvRtIfNIB3RuIAoEP5EZTOXzYzrF3aXrzlu+Zh77QeaTwIq7Gnm8E866/jtrzviiXAI7nnn33ipgIlBM9xM8viSkwW0dHnlVdlnoBH6USZ9XyuQz4dtDh/06k5/dV2o/Oy6tpPuUv3+ylXE5i0CQPlN3Tzy+1tMPelknV2ZCO++X/Y4nBfB63k96GY71eM9xoxfvmR9hOPULLz5/kP3lPYK/6TRBcN2+8b7H8Ux8OtRDnkhrqGzqhm7yBqcXu9dpSFryXV4wMTEx9Fp92bJlxT6Xv9gvRvMfl7jJQnKpJ33+qTQXPv17uxWH7bWTJ9QaipUrVxZn/dMPihv/4/FqjtReX3nPXsVeO24z8vVlI10IbDTGB/04uSweD9SPfpnSnDL7qmHzK6Z5oi1XqxrJwC5fvrzY+7Kl1VR39GWMRwkNGpfG00vIGg4umdOfk+4G/Mb0p77x4q+rSHPlynfsUhy+zys9mdZQ9JqB7fZz2rNF20Yb1w3tKl20uCIWXc3CVMs0nv7phNcWe+/Er6SNdn05UgEsN6PQn28Y6C+Y3r03nfjZvLRPIjjQLzn6gIJnocZd+pJG25VH7lp2IVhvvUYevKIx02sAy/Oah4F+/2+/9F+qqXWRVCC5QB/59K56TLVM4+krJ+xV7L3z6D/NZqT6wPJw414e4j4T3OzS7dEWdaKi4VdCUtxVzx3vPBrq1X95UzVX0igzA6th6jWAHebPPE91Y5MBrPpBALvXTqPfB3boASx9KcjAtu0mLgNYaf7wJi4NEwHs4q/8sLjhR7+q5oyWfgNYuvPxk9d0L6B7Alcv8y546bPK6X6QXuHkqSrv3G/HyWdedw45fiaWH3+hi0LMJ6EUzxTnUYt5F4gon+dr84hC1ol9yMuP/eCeC9ahXJ6Hnb8OPJbxJJ5203lvXEmt2/a4M4BN9NqFYJT0E8By49KfH7FvcdS+O5cHBw8b5lFKax3QnQqBZ3XGz6LyayLl46iqA4tl/Dze4uu/U5z51teWFQq/a8/jkdL5vJ5HKV1914PFR2958TFRefl3P/x4ccoXvtW1fNb76RPLyufpvW6HLYqPvGNRZ94WxdcfeHSt14F9+NBb9yyzB+WDlDsVkTdnqU0+TReCvXc2gNVQlBnYf/xBceOPp87AzpV+Atij9t2xfL40aAdo88BjHW+snglOVz+6/IGglHaPNvGg6lcHCSB5rjVtYASp8QtSMZ+gM33G91k3fKf41G2T90x0K5/HaLFPdeWDdf6vzj6eeehrqjmT89K2mqfj8J6iXNAWp+3puPMpBJVxePYiBwTPL73x3p+VPw/HT7CmP+kZBw1BI+vQX4lnrTIvDiD+EiBecvQbyvXijDCdTxcLznQpj9+qriv/qm8/UNzU2QbPF+V3nevK545sulSwPr8A9pk/OLh8MD8VA6/77Hsm+/+CioTgl39GnlMaPy/LIEmaX0hwgICWJAo/f0rbsKjTXiB+BZDAcJv/em2xzX+7tnwWd7RLKYJLnoHNz5ymzwZnPj/bynxeC35IB9xnQvaXto7llE9CiPJJpqRYj/2c/FnaJ8t1fr8TgLNfB15ycxmkMm9R9WuS7B/BK/tEufG6tD1VJ0RY3Y64baTuaOCgIPM5jCE9SxskDgYGDmYesMzPupHV5DeUOXhwSSfYI4A85Qt3lOvwEHvO9jiwuLSSIrjlwIozzcB8nqfK/PhhgJOqO1o37wSV/G41Z8iLb/z38mdg+SUsKoK4tBKoROjsX/7ec2f/yNyyX5Q7+ROuVFDblX8nK6TJiorfZaZsKjSCayqSCI6lUceJ9DicTGu01bVNgxi+dvrbqi0MQHWYcMWOy+z8/Cn1fvwwTLQpZC35SW3av6uWPli2J3l7Q8KG19E/N70Hhflke5n/qW9MtmfRnnCFkfaINorllB+ZQLoTpPjxFsphH2+872flPNpCtsXVwpuqebSFYP8o/6qlD5XlvtApNq4mvrPzfjWpLVeqGvklrl4bDvqzkMEcxsDZ3DAQZDIQ7PFTpgR8W7x0g8mfOe0cQCCrCYJFlpfrVAci81Jpt4NUetknyg1Msz36AsVPwMY2c3RdAAdxlHN39ZvSVAIpMrQgW3vmW/dM9n2yMji0yzakUWPXAQ1dD1+xurZpEEO3dmMmeLoObRpJiqWLjyx+8VfHlT8vTsCHaLO4ykh3uhho02gHU91unE7nx68LRrsCts3PghOcU3baJSBVVz79WutQPvvI33S/P1s9cSgPjjX67APbBQcOeuoDu+VkpvKd+032gQXLyYgSHEZZaUY1fK9zBnnc3/5beRDxW/Z5H6WYnz4GLPr/fP6uB8vHfFFp8Hv7bJuzYM5Kd9lq03Jf43V15UffJ86uY9/S9x3boUyC2BxZZjrAS6POm7g0TL0+hWCu8OMy/LR13eMkac9oK95wyVeKe6pkBiZv4tpy8ue9ycRWbd6aNunv7ix/0jpH1jRvo0K3+Wm7w36yv2yPLC9X/HZ5+WQ3uXhdXTm0wXR5S99j2u7x3n7xV+8qy42rjal+n1Q0n7XlJi4fithFXP7P+8XEdBrQkbnksj2X/ul3E/11OKAQwSG/20+wmA4Er7PF2THB61nXf6fqfvAv5c1YsxX7zaWZfL8ZDF7VFi+sXl2NSeOHfp6IPqCBgI9pgroIXmm3eA46iQ6u7NFuIbKr36vK2n8nbgReXg7EOdzoS//Y2VrUCZZBVwACUcqPq4GzQaa3DIY774Mh9v11ne2x7/nVUI0+b+LqIvrFEBxytseBOXl5/g3lfM78wJkplzrog0QQyWV5DorU56uzwbSDOxUHl2YiyJ2NuAQTFRAHZ7cuBP0ge0wgzxlx9G2i7PLSS+c9R7ZZksbeCDd1ZZe26ianqL/T9ufsG158zCVtB1lXbgJmOVfq8PlvT7Z5VxNUdgJeLvOTKSXYJTvK9CCec1s+GquDm7rY/iBvGiajC/Y79p2bmMnSEsRrEnFbG65WjdQPGfD4jt8fUkdqnkFXd7mjG/rJXPtHb6k9o+QxUqf8/eQjQcDBy3rlpfZnnysPYsYPvOQrZTBLWVQGcebLMoK/uJTBOrPpQhDToCxu6iKopbKaTRcCcObLetE9IYJW7uKMTv3SqPOHDDRMvXYhiF94HDTu8YhHUHVDO3TmW3gs445ltpH6nO5m3FCctjmst+SoA8p1GGgbCF4JguMSe3SbY/mrttq0vCL5f3z9h2t+OpykBwkf7rko78+odJtPGwpu3sJHDt+v3E/KZh95b+nr6sqhHaSNK7sdVO/nLzr7yL0aPKIrEjy0eSSTIuNK+Ytv+Pc194TI58CuQSS/YsWKnvrA8oX8484wDDPtr0k/IIJTglKCQy5BpAd7IEP51t23KX9JjMzl1Z0DPu9PwwHGs1bBOjwRINbhoCLApfw0g1s3n8qDhzQTAMe+sJ+cAIBn9dGRnexwvK6unJjH50JlBvYRaT8ptseJBftORUX5dZ+BNKoIYHkOrD8lq2Ho9YcMyH4OQ9xLIQ2CAWyCAHavS++qpiSpWd7EpWEa9Zu4pH54E1fC5y9KmkvWQRo6v2KaL1pynt/ITVw2HpLmEvWx9ZAkTa8tdeXQA1gv2UmS5rsF69nWaX5Y0JIUbCNdCAxiJc0ls68aNr9jmi/a8l0eqacQNIVHQZ100OSvi/x29bv/kmbvJ48vK268d6J8skU8mm0UfPrIXYu377WTTyHQUJQ3cf3jD4obf+xNXGq/r7xnr2KvHX0KQWmUfkqWR2J99j0v/q6zpOHgeYw8Y3IUXNkJYHkKgQGshmEQASwJFZ7BKvWDR2MO2j8d/9pi7523NYDFqASw6QP/JQ1f/qMfc8UfMtAwzfQxWlwN5BeneAZ6/EiM1C9+7ZOEwaCuevkYrcQo9KfgV6kMXqVmnfzGXQf2M5CzZR9FjRJ+CerHf35U+YtWBq+ajfcetGv5Ixn88tggtKWubCSAHYXLdtf+0aHVmKQmlb+RPsdddsgkmH3VMPVz5zbBKz+fauCqQeIncs889DXV1Pw3FhlY+hYxSJobBLFzyeyrhq2f79g//NFbDF41FB87+g1rfrJ+vhuLOxoO3d0nDUhz6a27b1uNzRGzrxq2Hr9i3IvhTcQaptl222rLFauxCGBfZ/ZVmlNz3oWgM5iF1TD12uBz05Y0THRRmU2Gn7qyDfXlWASwkubWXD8eyOBVo8LubBo26ttXbjmLpEFLLlgZwEqa97yJS8PWy0mSXQfUlFklDVpyvj8WAeyTzzxfjUmaC08+81w1NjfMv2oUPGVbpBZoy8n+WASwd088UY1Jmgtzfgy2pE+X2qnXBp8TuVH6iWXNX/c8PP/jnrEIYG+6b6IakzQXrrrroWpMmn/Kk6Mez4/41SRpmL5+/6NjceV5TLoQPFd88us/qqYkNeknjy+f+wDW/q8aon4uuX7qth/ZrU1DNS4Jg0YC2FHoT3Hhrfd56UaaA2ff8J1qbA7ZfUBDVGZge2zmSKjwu/XSMJCsM4AdoFHoe0al8fa/+WeDWKkhZJlO+bs7ixtHpAuPTyHQsJTfrT6auU/e9qPiozffV01Jg3HVtx8qFt/43Wpq5tpyv8DQA1g+iFH5MH7yxPLiwCU3251AGjL6YHHCeNXS0cgEGLxqmPrJwIYLb723OPCSr3iTsWatTBZ84c7ilL+/s5ozOwvWa0d9uWBiYmLo0eXy5cuLvS9bWk2Nhi022qA4dI/tfKi0NEBc4fj6/Y8VP+2cLI6SK9+xS3HY3jsX6603Ft3+1bCVK1cWZ/3jD4obf/x4Nac/+++wZac92nZWv56k8UPgygnQbQ88Vs0ZjH86/rXF3jtvO/In/o0EsM8880zx2r/5djUlSc268shdi8P22skAVkMx2wBWGiVfOWGvYq+dthn5ANbaXNK8ZwcCSeqNfWATq1evrsYkqXntqI7Vap4lSY1q5CYuSZpr3silobKpkxrVSAbWIFbSXCJ0tR7SUHl+pHmiLSf7Qw9g+SDMfEiSJLVAS0I2M7CS5j1rIEnqUUsqzEYCWDOwkuYSNZD1kIbKsySpUY39kMFn7/hx8eyzz3amajbHLBoXMrVlG1M1NOV0Oj/FjM788rWToy+uEyP5Qv5Wf9Zat5rPeGwzVkqzx2vmJ6rVSuV4tk7Mi3LKdbtMl+O5bN1qdJ3xblinXB4rVTPW2n7HOmUl66Ccz/+S16+ZjOlypWxZOWdyHFNNr/M5dcT8Uvqiznj6mlgF5fzJ0VK6Hspl/K9mxZgVrylHXvxTyl+/ZvvVvHJ2LEe2LrosnlK5TlVGuW71wpi/pkCk0/l4R1lGOj45Wo6ky9YqM5MVWeo2b6ryYvla76sj9mOt/QvM6MwvXzs5+uI6MTI5c+HC9YrD99652PeV23eKW6cgadZ4Duwt3///FT+Y+EWxetXqztcuvpRIvqB8l9Fl8ZTKdaoyynWrF8b8NQUinc7HO+LYWjM+OVqOpMvWKjOTFVnqNm+q8mL5Wu+rI/Zjrf0LzOjML187OfriOjGSL+Rv9Wetdav5jK9579VKTIc18xPVaqVyPFsn5kU55bpdpsvxXLZuNbrOeDesUy6PlaoZa22/Iylr/fXXL979+t2KnbbZqrPrscJoaiSAfe6554pf/epXxW9+85vO5/ZC+aFEt4IYT/8y8Ogt/iJdF/l6gYeU54/sYp14fSqdn5ebrt/t9Uhfl0v3Jd+vujJj3nTbi2VTbXs68dqQlhnbqNtOLKv7nFOxXoynYj5ivXT90G3ZdNOB+Yhl6T6zLF7H0K0M5OUg1q9bFtJlafnpeDfsK+vk6031WpbFcoZethPqvp9IX5/Pqys/Xafb8nxZPo+/DOwPf5Gui3y9UPe9jPW22mqrYrPNNqvmSoPF9+6pp54qnn766XW+u4yn3+EY78bj3/a/Trpsqm1PJ14b0jIZ2F/qy0022aScP8oaCWD5gFatWlX+Zcg/wH5FGYMoa1jYN9TtZ7f9HuX306s2v4de930+/DvNlUF8dlFGP2UtXLiwrJilYaGNywMorW2ujv+msW+o289u+z1K74cs7Kh+tqlGAlhJkiRpUExJSJIkqVUMYCVJktQqBrCSJElqFQNYSZIktYoBrCRJklrFAFaSJEmtYgArSZKkVjGAlSRJUqsYwEqSJKlVDGAlSZLUKgawkiRJahUDWEmSJLWKAawkSZJaxQBWkiRJrWIAK0mSpFYxgJUkSVKrGMBKkiSpVQxgJUmS1CoGsJIkSWoVA1hJkiS1igGsJEmSWsUAVpIkSa1iACtJkqRWMYCVJElSqxjASpIkqVUMYCVJktQqBrCSJElqFQNYSZIktYoBrCRJklrFAFaSJEmtYgArSZKkVjGAlSRJUqsYwEqSJKlVDGAlSZLUKgawkiRJahUDWEmSJLWKAawkSZJaZcHExMQL1bjG1Obnn18seOqpaqreqp13Lla/7GXFyn32KX5z8MHV3N5s8eEPV2Mv+vVZZ5VlzsR6Tz9dbPylLxUbfP/75cA0Vu60U7Fy332LZ484oqd9fGmnjA3vuKOa6s/TF1xQfh6SJKl5BrAqtnvzm4uFP/tZNTU9As9fL15crHj3u6s53b2kEyC+/LjjqqkX8XqC2H4QqG7y6U8Xm3zmM2uC1m7Yxyc//vEpA1kCa4LYmXj0W98qVnUCZknS8NFGrf/zn1dTRfH8PvuYRBhzBrDqO4ANBKAEolPpFiQSYD56553V1PTYv61OOaXMuPZjqn00gJU0TqhHqe+nQ2BIgMgVrWWderfXq2XUp/kVN8p6rFNfziTYZH83/exni42/+MXapAX7RZKilyt6M23nKP9X115bTWmU2AdW66AiyIc6m33sY8VGN99cTdXrtpyKhOxsL6i4tn73u2uD16hoGeqwj2Rte0FZde+9bpCk+Yo6l/qZupPAb7MlS6olU6NrV46y+k08ILbN325X3GhHCJq3Ofzwnut5zR8GsFrHEx//eJkdTYeHJybKS/J58Eb/2W6oWLpVPNjolluqsam97Lzz1jlz5qz4l52z4kd+8IPiF7feWg5T7WMvZ97L3//+dd53t8Hsq6RxQSJguiB2qqTEpj0GwGGLP/mTKduWHO0M6/caaGt+sAuB1rm0QmD4XJe+o3V9Wrm8UtfXlEv+aQaWS/lpBUPGkwB0Kpy5c3admq7/LO+F16TBc91loLwLwUz65UpSW1A3pl0IqIOf/uhHq6lJrEO9W3f1rFtdD+5N2Py886qptbGdXrsR0EYQMOfY7rPveEfxwuablzcd0xbV7eNTnUCWZEQub+eeuuCCsqzpsM/cGKzRYwCrvgJYEMCmZ9pUBMtPPbWampRXlCBzSdCYvnaqChF5kEl2lXKmw2vSvlh1FagBrKRxktfLU9WnrEvXrbRtqEsEBJIGaVcB6to0iVDXTuTqEhZ0D3v8s5+t7bpVt491dT3yds77GNrPLgTqW16R1PVvyi8lUfHxuucOOaSaM6muz1Sg8ksDTFAJ9mLF8cevNXDmPt2jwiRJk6iv6ZKVol6v6xZGYJi2A7yWRw2mprtfAnQXS1EOAXPe5gTm//LLX14rWGX/yAZr/jOA1azVXYbJA9NnTjih/Js/eotKra5CRB4YU0n1cymHyjcdulWCkqR11d0cm2YxA08KSMXl/jSw7Bb8BsrNEx/cj5FnUnPU63mXgQ1vv70a03xmAKu+5ZUMPyCQqquIIvCkskm7DFChdfsxgfWzALbbkwYkSYNH8Jif+C+oCULz7CpXvXhtP1fc8pt6aSem6sqWomsCXd9iyLO/mp8MYNUXHlWSn4Hnlcw6wWt2Jp5Xat0ef5KfrfNMwmHi5oEddtxx2mGmv94lSW1Tl3FNUd+n6xDwRpuQ93mdqhtB3m7k7cRUymC5CngZTHaMBwNY9YQKigAvf7QJlVVeWeT9jwhgU3k3AroK1F1ayivOqS4lbfW+95Wd9Kca7BclSb3L70EAPyeeyrOq6RU22oa03i6D3eTXtFJ5fT/sIHTTTntQPh5smkGjywBW69j6uOPWyToSANYdzHSgT1EJ5X1X836rdd0I6i4t5X1rp+o/xWUttj3VMNXrJUkvos7M63zq7TyRkGdO6T4QWDdPYNQFxcjr56kSFmxzumG6+p4rf+Uju6YZNLoMYDUjVC5PfuIT6/SPyjvz590HQl6p1V1ayl837KcIsE+8p+kGH70iaT6gTiWgTAeuVPEMb5IWBLGp/JmxBIrpOmn3gfBMEtCiWwDbDx7lON1Q11dX84vPgVVtRdUNQSVPFOj2+9h5Wazf7WHR+Tb5UYM0aKWiS5/lyva6PbOwrEizS1MExWlgnD+H0OfAShon1LnU0TNRVz/mdSjZ1/zRW2RCt33Tm9bKiNY9/ztvO6Z6HjlXBaeTP+e1n3YuxS88ajSZgdU6qKjqMo/8XCsPiOaXTuqC1/xsHFRazKsbclP1pQKv6XZZiHXpW5sOeQa3bp8lSd1Rj3LyX3dyn185o99qXMKPgS5leX/Wup8Rz+vr9bv0lR0UAlyC0+kGjS4DWK2jLhhkyDvk56Z6REov8sqQgDOv+PrpVE/lmfLSvyRNjTqeupcuVSQzSFrU/YIWmdc8ocBPydZdzs/r4o2/+MVq7EV5XZ/fS5GqCzTzBMULU7RVmh8MYDUweSXFw6XrMrnpkOL1eTeAvK8sHe/z7dSh832a5a0LhiVpnFEv5oEgXbnoqsXPt5J17Za0qMui9orAN6/H8+4CBLndrrjl4kpfYJ+nSrZofjCA1UCUwWfWLYDKry6Tmw55N4G0PxU488/PrLd83/uKl2ZPP0iVd5dmmVoyCZKk2aOur7vxth95AJzf8EtQ2uujD+u6Mmj+8yYu9dV5vpu8Mz+VEWfw06GC4rJTIFjNb9QiOOYyVI51uWkgugZs8L/+V+1Ze12ZyPeZYLrXh2cTWHuGL6lNqOfTm7i61Y3Tod7s9QbbkNfj1J90T0jrURIP+aOruFJHsqMb3tM2hx++Vr1f95q8nctv8lL7GMBqIAHs9nvtNW0FUofX8NpU3R2qZFXzH1HoBRUrz6rlby4PYPth5SepbQYVwOb9WuuePpCjrp/uaQR164DyuaKX1uOsQ7tAEiRdv9t7MoCdf+xCoFnj8k1e4eQ/XtANZ995sFrXt4r+tGR06wLRbii3W/AqSeofQWDef7XuJq8cdX1+T8OmWbaVdZ743OeqqReRaCAAZSB45i+JDzK2eduT/7hON/xgT5Q51VB39U+jwQBWs5b3R837Mk0nr9Tq7lAF63FmzZl+tz5OERCTRebs3uBVkgYnD16pY3vtc5r/qEHdz4hTf5OsqGtDInhOM6mB9bny12udTxm9DMN+nJdmzi4Eai0qvvWTR63w2BQqr36CZ0kaFwRkZBUD9WW/XQjob5o+4oqrYzwbvBfU2XkXgfwHZgL7Soa1l25eBL0kNqYKXnnflNmvmXxGaoYBrCRJY4DAMb2zn5P9Xi7/p/InvHCvQ69ZT9DljBtuw/N7773OVbgUQSfdyqKrWgS/ZH0ZCF57uWcj7yvbq5l8RmqGAawkSZJaxT6wkiRJahUDWEmSJLWKAawkSZJaxQBWkiRJrWIAK0mSpFYxgJUkSVKrGMBKkiSpVQxgJUmS1CoGsJIkSWoVA1hJkiS1igGsJEmSWmXBxMTEC9W4RsTCn/2sWP/nPy/HV7/sZcXz++xTjg8CZa/39NPlMOiyJUmSmmAAOyJecscdxcZf+lKx0c03l8Fl7jcHH1w8c8IJxYp3v7ua0zvK3uiWW4qNv/jFWZe9+fnnl/sYnupMP/uOd1RT3RE4b52Uv3KnnYpfXXttNbVuuTP11AUXFM8ecUQ5nm+zH8tOPbVY3hkC+8Y+Bj6rXy9eXE1N7eXHHbfmhAS/7LzvVZ33j7zcmeLfgH8LSZLGgQHsHCOg3OLDH+45eFu1887FL7/85fLvdCh7syVLik0+85lqztR6KZt9fWkn0A5kcR/71rfKv1MhmNzuzW+upia39eidd1ZT65Y7U09+4hNrAvF8m/0gOP31WWdVU0W5b+xjigCc4H867AP7Eh7tfF4RwNaVOxMrjj++ePLjH6+mJI26Db7//WLDO+4o/wbqxef33rt47pBDpq1Tp0J9Q9KCE+cFTz1VzptJ2Xld30uyAryn/H2ldeUg6npQ74V8m/3gfaWfCUmftM7Ol3fDa3htyD8z2vm6JFK/et2f+c4Adg7xZSdDmB4oveCLS/A01eX/YZVdF2hSMaXZ1Drsx3wLYHkPv7j11mkrEgNYSYEAZ9MlS9YKdOpwTFMHUc/0atBl77DjjtXYpF5P2jf72MfK5EnI66e83Jl6eGKiGlt3m/1I62Tk7dHy97+/pytcfO5ccQt5O8ey6f5tesFVvOd6+HeY7wxg5whnYdscfvg6AWacsUXFwnqcteXrTRc85UET0rIZ5+y8rmyWUXZd5dYt0OTg5iDvhm1MFcCyHxv8r/9VTa2tXJacWfMeugXYdB+IZfk2eV9T7WOKyiHPGNQFmuzL45/9bDVVb6oAlvdFpqROuazz3gPvi+3VIbPSbZmk0bD5eef1fEUM1JPUL1MlK8JMyp6uC1geaPKaXk7a51sAi16CdwPYZhnAzpG6yobgirPiusqh7uDslnVjPdZPTVX2Jp/+9Dr9MLtlVbsFsFMFvZgugJ1Kvs00yzqV2Wwz1y2AxXTB+1QB7FTybXb795Y0+rb4kz8pXvrlL1dT/aFunSqInU3ZBMjdgti6QLOXemg+BrC9BO8GsM3yMVpzgGCmLnglEOp2cBB85pcwOMDy/jSUXRe8TlU2y/MKiYOsnwON/egW4M13fN5pgCpJKQKrPMCkPqarEsETgdgjP/hBGZgQ7OW2OuWUrn0nZ1s29XY/9RftTnplaCbYr25Drm6dGKZCUF73mrqhl4RCXdvaryc+97na7TPkJyjckFy3HsPKHjLy48AAdg7klQ1naQSo0yHQzL/k+eXnPOjstWwqtvzyCH2p+sG2yeaOm3EO3iVNrS7woR7n5lfq5gieCDrJqpFMyBMKlFHXPWAmZXNlLU1mzKT+6jfozbFf3YZc3ToxTIX3WPeauqFXtG+zCd6n2qf03wQvbL557XoM+brjygB2DuQHAI9s6vULyaOdCDZjWL3ZZtWSSTyKK9VP2cuyx0IRkHY76w950EtlOtM7QduERoKTgzCuwbukqeUBJvUGl+2nqpep2/PH9NXVLzMpmzr76QsuqKYmUX/lyY+pjPNJO+97unZRzTCAnQN5gNdPXxYqtjhDZ8j7LuWVUD9lU7HlFd90wSiPZEkr2nGp2Pic8iwJjclsshKS5p88YUF9mZ78dkOyIq2PqVsXJs+TRl7f91o27UiefOh2M2kq3Z9xPWnn32HL972vmtJcMoBtWF1AmHcLmKm64KnfsglIU3mFWYdLVel2eI+DeDj/oPE8RPpvTTf0momgAUhv3qJio6+aJIG6JM3WEQD2cgMqWPfxz32u7LsawwtJAEk9m9f58SMuvciTHxvefns11l2euR2Xk3b6o3rFbfQYwDYsrczQy9lyr9Jfe8JMyk7PsNFr5ZRftuLg7jUQbAqfPdnh6YZ++v5yc1wevOeX9SSNp/WzhEXfCYXOSXI6pHVsXjfXXUGbSh7sTne1Db855JB1TtqpM+c7+qN6xW30GMBqIAiW85vFqNjygH0+omJLGw7uCh614F1S8/L6b+W++1Zjs5c/N7vfhEXd+r1ecUtfO6rZSPaLx1ZNN/TSdQJ1V9zGIXgfZQaw88jKnda+mzJ+QrApHNxpvyrOTschG0lWZVyDd0nd5Rm6fjKk/SJL2K+Z7A+v4Ypbii5jvWRwm8RnTxA73dBPPd2W4H1cGMA2LA8yOcgGFejkFRjl9lt2XuH2e1afZyNHqSsB74VnIk43TPezuHXGNXiX1F4zbXs4ac+fSz7Vs2rni7rgnXp+1IL3cWEA2zCCqPysd1Bffsqdbdn5+nnAPR3en10JJo1iP2BJzckTAHmCYJC84rY2Pvt43ORUA89V7Ud5xW0Mn7wzigxg50Dekb/XPjjgJ2j5adIY8p/Oy58i0E/Z3IGfBpoEY/08hitQsaV3uFKxjcMB3i14b7phkTQa8uBokAFsXvZskxXoN5gb5ZN2gmv2b7ohDcJ7RT2ftuN8lqP45J35zgB2DuSPL9n4i1/sqWIjuCQgZd0Yns9uCuCMMtVr2cjPnvP97AcVQ5p96Ldybau64H0css+S1pUnK6gH+6kPWJ+AMIb0tXngNZOyUzMJ5Mb5ilvdk3d6eRSZBscAdg480wky0y8+B3sv/YfItqbBKJVH/igUptPAMcqeLojNy0ZeMfWD90cQO4543+m/r6TxRACb1/V1Pwlbh/p4m8MPX+uO+fRqDvV8Xs/0WjbyhMVMn5BQ15VgHG5sqgveve+hWQawc4BKJ//iczZMZVV3yZ8zbyqvvHLKf2ow5J3rKXvrd7+7eOmXv1zNeVGUnR94Zd+gJBCeCSo1Krdxw7/vE5/7XDUlaZzldSDB3XQJBdClK0V9nNfJMy27LmGxbBY/wjKuJ+158K5mGcDOEb74+S+yUKFs9b73FdvvtdeaM276ufKXQDPFQdPtF124hJ1XbJS9xZ/8SU9lU0nmv7gyUwTqsw2EB4XsRbz36Ya8b3G/xjV4l7S2up+EJaEwVaBJIJonFeoSFoMqe7YJC17rFTc1zQB2Dj35iU/UBjlUQgSVDHUVEcHRdBk+srB1Fd50ZXPJ65df/vLADkjKGZWKLX3v0w29PNB7OqMUvEuaG9SB+RU36l4SCPQXLeubzjRXysi6cgKd3xBEPVKXsOilbMqdruy8jJmoS5zMpX7qe9adKT6/QSV81B8D2DlGoEmA10ugU1ZWnaCU55T2EmBSKc2k7F7W78c4dyUY16yEpBdR/9UlFCKoJOCkC1kEnSnqY5IK3UxXNuV2K5s6ipuRBlXnj9JJ+0Y331y+/16G/Cd/+0UGezY3PWtmFkxMTLxQjWuOUeHEUwbSM0KyogSB+c1f/aDsDTuVF2fisyk7ygncNNbrgcuZf9yEwI8u5H11u8m3yb6yz9Phfb7svPOqqf7wOLI048H22Y9AJd1r1oK+y3zugbP1Xj7rfJv5PklqFy7d99M9KYLXXoLCmZRN8Jo/KSG1w447VmOTHv3Wt6Z91BZBMkFhigCv15P5fJv8uEwv+n3/qV9ee+1aj4wk2E/rXq6WTlf30t5wopBe2eQzfvTOO6upqfGZpScYvWxz3BnASpLUEAIcgq00QMpxgltmVvu8tN9P2Xn/2TozCWBBsiJ9EsE4BLDIg3cD2OEygJUkqWFk7LjKkl5xI+B5fu+9p8yK9oLyuCyeXnGbSdnplS/0+sM2sf1A0Mv2ezHTbfI5zvTehZWdzyQN5vncFlSfG/LlU0n3/4XOa3r9vGezzXFlACtJkqRW8SYuSZIktYoBrCRJklrFAFaSJEmtYgArSZKkVjGAlSRJUqsYwEqSJKlVDGAlSZLUKgawkiRJahUDWEmSJLWKAawkSZJaxQBWkiRJrWIAK0mSpFYxgJUkSVKrGMBKkiSpVQxgJUmS1CoGsJIkSWoVA1hJkiS1igGsJEmSWsUAVpIkSa1iACtJkqRWMYCVJElSqxjASpIkqVUMYCVJktQqBrCSJElqFQNYSZIktYoBrCRJklrFAFaSJEmtYgArSZKkVjGAlSRJUqsYwEqSJKlVDGAlSZLUKgawkiRJahUDWEmSJLWKAawkSZJaxQBWkiRJrWIAK0mSpFYxgJUkSVKrGMBKkiSpVQxgJUmS1CoGsJIkSWoVA1hJkiS1igGsJEmSWsUAVpIkSa1iACtJkqRWMYCVJElSqxjASpIkqVUMYCVJktQqBrCSJElqFQNYSZIktYoBrCRJklrFAFaSJEmtYgArSZKkVjGAlSRJUqsYwEqSJKlVDGAlSZLUKgawkiRJahUDWEmSJLWKAawkSZJaxQBWkiRJrWIAK0mSpFYxgJUkSVKrGMBKkiSpVQxgJUmS1CoGsJIkSWoVA1hJkiS1igGsJEmSWsUAVpIkSa1iACtJkqRWMYCVJElSqxjASpIkqVUMYCVJktQqBrCSJElqFQNYSZIktYoBrCRJklrFAFaSJEmtYgArSZKkVjGAlSRJUqsYwEqSJKlVDGAlSZLUKgawkiRJapUFExMTL1TjkiRpBi779OeKb97+rWpKaq9F++1bnHvWmdXU6GosgP3ePfdWY5LUrD12363YdJNNqilp8C762KeKW7/2L9WU1F6L9tun+Nj/+MtqanQ1FsC+/feOqcYkqVlL/vrCYv9F+1ZT0uAZwGq+aEsAax9YSZIktYoBrCRJklrFAFaSJEmtYgArSZKkVjGAlSRJUqsYwGrgNttss2pMkiRp8AxgNStnnPb+4s/O+XDn76ll4Mpw0IGvL3bc4RXlwDR/EcuPfud/Ln73dw5dM41Yh9d+6uMXlcvDf//oR4q/+uhfFCf94QnlOGJ9pOMn/eF71uwPYhmvYx7T6fpgPgOvy5dJkqTRs3Dx4sXnV+NDddX/+cVqTPPJyZ2g8tLLP1MGfnvt+epO4PnWcnyjl2xYvK0z/t5OQLlDZ/olnWmC3c0227R47rnniv0X7Vcc0wlkX7vna4qHfvLTMvD8t9vvLF7WWX7MO/+34oab/rH45a8eL97YCWif/vWychuTr9u3DHrZ1qnve2+x2667dLa3fbGoM/+ee79fLt+ps72rO9+3ozvlbL31y8ugeJvO3193ymHfjnzHYeVf1ieYxm677lr8piqf/dD8csTb31Zsv9221ZQ0eN+849vFAw8+VE1J7bVdp6484rC3VVOjywysZoXgkuGgA99Q/v3n//n1TqD463LZD3/0H8XEww8X/9KZR9B519LvdALP15RBKuMElFf/n39fZld5HU7uBLJXdeb92TlnldOUSZDL6wlEwXRRLCi+3SmDQJR1Atv8r39xYXH6aaeWQW7uhz/6cfGjzjqTZUxmaF/WKfv/c/HHy+nYd0mSNLoMYDUrf3P5Z8osLEHnZMD6/3QCy+8WP+iMM/21/3lbOY9xAk2WMRA4EoCyjKDxrs48/H+rbO6//M9/LYNWXsfANv65Uxblsa2ieKEz/8ed9T9drs8yUB7dAcjgRlmUzevY7tNVgMpyMI/tHPPO3yse7gTb11fzJUnS6PKnZDWnyKoSwBKMzhWysfS5/UFnH8gWa/7xp2Q1bOP+U7Kv3fPVZbctrqZFQoIuWiQXul3Z4jUkNh5++P+p5ryI5AOvp/thvJ5p6muu3O3Z+TtVfR37c8NN//da7Qtd2xZ0/sZVvxRd1miTWL9u+bhoy0/J2gdWc4qKi76uc+mXv/pVWeHSF1fzk31gNWzj3gf2rD/+YHHBX/2PMhnwkpe8pHh75y/3FXA/xOSNu28tfu8dh5XBIV3FCDDpvsWyvfbcs+xedve995U363J/Auu/8cA3lMErdTPBJfdTcPWM8bf81pvXlMVVNO534L4K2hS6p533539W3jvBfLqtnfDuY8uy2N5uu75qrddSPvPpCse9Ftyzseuuu6wV+I4T+8BKkqQx8UIZlL79d367zJ5yRYu/DHTtIogk+HxbJ7DdYYcdqtdMdufiRly6nXGjL8EndqzWIagEwSvBKQPdykB3McpmuwSjjMcTbP7m8k+X4wS7lDu53uS9D+CGYoJX9gssI8ClGxnz2W+NNgNYSZI0KxGAcm9DBKEEhHQR4C8BZHQXYHoyu7qszHy+UCyoMqKT9zqAG4AjOCWgZD5dAv77R/+iDIBZxj0MBKi8lkv+ETiDgDQCVtabDFDZl8kbjwmQCV4JjME+MRAIR/kabfaBlTTv2QdWwzbufWBni76ndBv46+qJME0jSCaAxrjfD9GWPrBmYCVJ0pziPoS5Cl5B9pWn6jB4M287GMBKkiSpVQxgJUmS1CoGsJIkSWoVA1hJkiS1igGsJEmSWsUAVpIkSa1iACtJkqRWMYCVJElSqxjASpIkqVUMYCVJktQqBrCSJElqFQNYSZIktcqCiYmJF6rxoXr77x1TjUlSs5b89YXF/ov2raakwVu2fHmxfNmKakpqt+2226YaG12NBbCL//Qj1ZgkNev0//2UYvfddqmmJElt11gAK0mSJA2CfWAlSZLUKgawkiRJahUDWEmSJLWKAawkSZJaxQBWkiRJrWIAK0mSpFYxgJUkSVKrGMBKkiSpVQxgJUmS1CoGsJIkSWoVA1hJkiS1igGsJEmSWsUAVpIkSa1iACtJkqRWMYCVJElSqxjASpIkqVUMYCVJktQqBrCSJElqFQNYSZIktYoBrCRJklrFAFaSJEmtYgArSZKkVjGAlSRJUqsYwEqSJKlVDGAlSZLUKgawkiRJahUDWEmSJLWKAawkSZJaxQBWkiRJrWIAK0mSpFYxgJUkSVKrGMBKkiSpVQxgJUmS1CoGsJIkSWoVA1hJkiS1igGsJEmSWsUAVpIkSa1iACtJkqRWMYCVJElSqxjASpIkqVUMYCVJktQqBrCSJElqFQNYSZIktYoBrCRJklrFAFaSJEmtYgArSZKkVjGAlSRJUqsYwEqSJKlVDGAlSZLUKgawkiRJahUDWEmSJLWKAawkSZJaxQBWkiRJrWIAK0mSpFYxgJUkSVKrGMBKkiSpVQxgJUmS1CoGsJIkSWoVA1hJkiS1igGsJEmSWsUAVpIkSa1iACtJkqRWMYCVJElSqxjASpIkqVUMYCVJktQqBrCSJElqFQNYSZIktcqCiYmJF6pxSZI0A//2b/9W/OhHP6qmNG6OOuqoYuutt66m1AQDWEmSZmH16tXFZz7zmeKOO+6o5mjcnHXWWcV+++1XTakJdiGQJGkWCGBXrlxZTWkcPf/889WYmmIAK0nSLCxYsKAa07jiO/DCC17QblJjXQh++ctfVmPSaHt+vQ2LVQs3rKY0H+z4spcYZGhoyL5eeeWVxV133VXN0bg588wziwMOOMB6pkGNBLCrVq0qTj311GpKGm0Pbb2oeGi711dTmg/+7rh9i0NetZWNi4aCAPaKK64oli5dWs3RuDGAbV4jAeyTTz5ZfPjDH66mpNH20Fb7FA9tfyDXhKo5aru//f1XF7/zmlfYuGgoDGC18I1HFZu/6rXzoo75i7ftXrzsJetXU6Nr6AEsfUJ+8YtfFH/6p39azZFG20Nb7tUJYA8qivXsIj5ffPrIXYvD9t7ZAFZDQQB72WWXFd/97nerORo3393xd4ont3hVNdVu//r/fn2x69abVVOja+gttA2GWsmvraQe8RQCBmk++M1vftOKG9KGHsDyIaxnJkvSHPLuYA0T3y+TNe1wyGOPFYdNTBTbPfNMNedFsWz3p5+u5vRuPv3rc99SG77PjWRgbTwkzSXrIQ2b3692IHA9+/vfLy6+665ik+TZvcw/73vfK0568MFi2QYbVHN7N6/+9Tuxaxu+z42kRs3AqnVsi+YVgwsNE22cGdh2uP5Vryru2XLLYrtnny2O+elPq7lFGdDiule+snh0443L8bHVkuqykcjSvkFqnQG0RVts3P9ZvIbD4ELDxAmSJ0ntccm++xbL11+/DGDJvJZ/OwEtgesNnQB3WN66x7bFZ/7gTcXXznhb5++bi1dttUm1pLuj9t2xfE0+rgYCWA9sjZsPHbpncf9H3ln84q+OK57/2B8UP/7zdxYnH7RrtbQ3VGyUEZUVFV86rf5QBxnEalhs49qFQJVM7KYrV5bdBiITe86BB5Z/h2H/Hbcsvnb67xa7bLlJ8fX7Hyt+e/dti6WL3zFtomNR53XvPWi3dcaHqiVVZSN9YG04NC7+4oj9iiVHv77YfKMNi89/+8Hixnt/XuzSCUY/2znbPvPQ11Rr9eZVnYqOyi7k0+qddZCGye9X+1xfdRXY/de/LrOvt+6ww6y6Dvzvh+zRqeffVCYr6oJS5j/5zHPF2y/9l+LCW+4rDlxyc9k+7L/DluVyXkP7QZKiWxk51mN92pz9d9yimjt7naitGhttZmDVOosef7y45dZbi3/4l39Z507Ss++7r1y2uPN3UKhIyIAyTOfMQ/cs/x54yVeKU//+W8Vxf/uN4tUX3lTOo3LKUelQbi+Xkuqk+9ZLhTe2OgGG9ZCGxQx/+3CjFn1hw2z7ve77is2Lnz6+oqznr/2jt1RzX/STx5d36ugNOwHnm8v6mmCWNuLrDzxWLl+6+MjipE5A+tPOet3KSBG8khh5asVzxRYbbVC+/q27T99G9aITtbXi++zdVWqde7baqjx75vLPaT/6UTV38i7Swx5+uOzbdM3uu1dzZ+djR7+h7ArApR8GugPsv0P3M901QWRy7P/kieXFHp0g9sBLbq7mFGVW9mtn/G5Z6VDu/Z1yqdj6CUKp5NJ9Y/wvjti3WqqcAYaGhe+W93q0C4/LivYC0R92ps78h+8UH73l3uJdn7utE6But04w+anbflR89Ob7yq4D0ZZEfX3UvjuVSYy3/80/l9nZKGPRFG0NXRIIgq9a+lBxSicQpo25e+KJaunsteGEv5EAduHChdWYNBgEqJwx89w+MrJYcxfpq14167NpECBy2f/r9z/aqVC+UZzyhTvLM2gCz26BJn2bQAXFZZ3I2v60E8QyBJZTwX305nuL3+1UWld9+8HivZ0z6o/UZGnrUO5HOpUfZ/XsG2Vw5s7rZ5rNnde8EqQhMgPbLgSqJz3wQDl+8b77rkmIzObK3Y2nHlo8t+Q9xdKzjyyn6+rhC2+9t9jjLyeTGTfd+/OyviaTuqi6/M99Dtw3EWW8rhOkdvOpr/+orPNJgpC8+Mg7Om3HgL6CdiGocFDbcGjQuPxz+Z6Tl+vpNpDeRTqQ7GvnK0vFQoBIn6Wb7vt5cdVdDxWf7JxFE8S+s3PGXIcuAwSjZFi5mSsyowSzEfTG2TZ9ZC+89b7itgceK8+g7554sue+T/SHxd0PP1HuG2XQbYGzcCo1Sc2ynWsPgtfo93rHttuWbQaZ2P2feGJNQqRfR33mtmLDxV8oNjjrC2WQSnuRog3gkj+otxffOPmzw7QFUWdv89+uLV/frYzUk8/Sn/afi23+67XF4hu+UyZA6IIwThrpA+ulFQ3D7Z2KJ57nF10JBnUXKZUKA8EkjzyJgQAzltfhkg7BKJUKmVGC2ac68whmo09TnG1zdp2WPbm9DYvNO8N0brpvoqz0CIbLbgSd15/51k5AbxKolhkyDZvPO28HAlS6DqTJDhIil732teU4CZH0Bw56deHvLSqfEECQSlY0kgyB+pr249r3vaW8esaVPHAjV9TnJDxOfiPrHFpbRorsLd0QTnrjbsUuW21aznvqmefLv+OikQysDYeG5eok23p3J5gdRNcBxDf2yU6FQLeAGK6668Gyn9NtVVeBFMFuBL1PPvt8mRklmKVfE+XQpynNrpLdTcv+5G0/LMsm4J1OeTdrp9yzbvhu57WPFvvvsFXZ5YHHsnQLrseZdZAkLHriieLWHXcs2460vfjqDjuU8+5++cvLJxP0a9lzK4uTOgEsJ8vUzWmXMXD1ruyGttGGxVt33674ya+WlV2/7nn4yTX1OX1YTz5wt+LJFb9ZU8Y9nXlcrUM6Tl/ZT379R2USg76ylD1VxnY+WjAxMTH06x6/+MUvinPPPbeakgaHs2XOpgMZWG7ymo2HttyreOgVBxW/+O/Hd6ZeKF79lzeVASgIQOk8T0UT8wJ9WjmrJqCk20HgNT/+86PKv1wiovsBZ+lUaIs7AWiIx6DQlYAglBu7oiz6vHJ2HtOxHwTBcfnps+95U+fsfbdOUPud4lO3/Uc5T5M+feSuxWF772wgq6H4zW9+U1x22WXF3XffXc3RuPnujr9TPLnF8H4EoUlfOWGvYq+dthn5+rKRax72DdIwxF2knEVHf9j0qQSzFf1dP/OeyceeHLXfjmueGrCoenZf6u7OmTTBJJlWMqE8UouB9Qk4CT4JeuNyEd0KuEmMsiezp0cW1/7RoVVpU+NMn3L/4Y/eUr5+ctiuXMajXLQ26yANk1caNZ+0pb5sJID1wNagpXeRctknft+aSz8nVvNn68Jb7p28RLPfTmWwSHBJ/9Szrv9OedNULi4DEZySHf3Y0a8vB8YJXk/5wrfWWY/HdFF2PFGA+b3gkSzsG2XzegaytjzVgK4LWpt1kIbJEyTNJ22pLxvpQvDYY48Vf/qnf1pNSbMXXQe4i3TJvpPP0qNz/sVLlxbL1l+/OP3gg2fcHza6EBQLJs/v+PWrV3aCQzrI//TxZWX/1unw6yqbbzzZ35VANe8PFWI9yubO1FR04I/X5tOIfQP9o3rZt3F05ZG7FofbhUBD8txzz5VdCL73ve9VczRuvrvjb1ddCNpfx9iFQBqSuIs0/8GC9AcOZv1LXMlpHT9EQMaVALPXAJF1eQ1Dt+AVsV4evILXpa/NpxH7xmDwOgUzZBoiM7CaT+xCkDDroUEiUD3i8MOLY9/2tnWyrJe/9rXlsnMPOqiaM0N+ZecV6iCDDA2Lj9DSvGo0WvJWPOokzXsEr55Ia1g8OdKk+VHH+EtcFRsOSdJ8ZgArNa+Rm7h++ctfFuecc041JY227Q94S7HbW3+/WOBlwZFzz8NPFPzoQ/4M3un4HFgNE8+Bvfzyy72Ja4zNp+fA/tMJry323mnbka8vhx7AcmbKDxn4FAK1xTHHHFP8l//yX+zXNsI+f9dD5WPOeMJDL3wKgYbJpxDo3zsB7BPz5YcM3rNXsdeOPoWg/ABsNNQ2XhIcbe89aNc1z77tif+ekoZpHoU5bWn/fA6slCED+/73v79YuHBhNUejih9/OGjJV6btUnDlO3YpDt/nlZ5MayjIwNKF4N///d+rORo327/9D4sNdnpN8cIcVjFPPfNcWRfSzWo27EJQ4QMggD333HOrOdJoO/bYY4tTTz3VALYlbrz358Vxf/uNaqqeAayGyQBW5513XnHwwQePRB1DEHvjfT/vq5tVyi4EFVLRXo6VNCz81G/PXQmkIbCd0yjZYuMN1nSz2n+HLaq58493qUgZG6L2eee+O1Zj9cgk+O+qYfH7pVHMVu7SObH/2hn9B7EvrG7Hd7mRDKwkDdP+O25ZjdWzHpI0TKNax2yx8YbFte87tMzK9mrUuw6ERp5C4OOIJA3TLltO3YWgLRWy2ongxe+YRhWZ2JMO2rWa6kFLvspGllING6P5xQyshsn6QqPuqH13qsZ60JLqspEuBKtXr66mpHYw4GmXJ595rhrrziBDw2IGVqNuum5Wqba0f410IfBxRJKG6adPrKjG6hlcaJj4fnnSq1FGX9j5ppEuBKtWrarGJGnweBbsdAwwNCx+t4T5cqLclvfRSAZWkoaFX+O67YGpf3nGAEPDRDtnW6dRrmfunniiGps/GukDK0nDcvYN36nGpmCAoSGinbOt0yj7/F0PVmPTa8t3uZEuBFKbmE1pj4/efG9x430T1VR3/GsaYEgallFuM7hKddO909eTbWMGVqrh93a08Vvfp/zdncWFt95XzZma/54apkEGLyeddFKxePHiYrvttqvmvOiwww4rly1atKiao1ExynXMhbfcW/z0ieXV1PTaksBZMDExMdRPnX/UX/7yl8W5555bzZFG29uO/N+K4/7wvcX6Pj1j5Hxv4oni6w88Vlz97QeLJ599vpo7vSvfsUtx+D6vNLOuoXjuueeKyy67rPje975XzZm5iy++uAxQzznnnOKee+6p5k4ieD388MOLSy65pPjqV79azdUoOO+884qDDz545OqYs67/TvGpb/xHNdWbr5ywV7HXTtuMfH059AAWv/jFLwxg1RoPbblX8dArDuocHfawmS8+feSuxWF772wAq6EggL300kuLu+++u5ozcwaw7XT++ecXb37zm0emjvn6/Y8Wi2/49+Luh/u/eeufjn9tsffO2xrAwgBWbTIZwL6R6yjVHLUdGVgCWH/WWsPwm9/8prj88svnJANLV4Ozzz672H333YtNNtmkDKKvueaaNa+lLJbffvvtxaOPPlp2UcB1111XlsEy1mEZ82644YZyOSjztNNOK/+CMq6++upyXa1tz99/b7HNq/eb8x+x+unjyzvB62N9dRnImYFN0IWAg1FqAzOw848BrIZprroQELyyPn+/+c1vFsuXLy9+67d+qwxk4/WUxTose+SRR8rg85BDDinLe+CBB4ply5aVgQrr4eSTTy7XoUzeE2655ZZi0003LbfNsg984ANleXrRd3f87eLJLXapptqtLRnYRmrz2XRu5qC66qqrygM3xwHGsosuuqiaIw3IXJ9Ga7DMpmuIhnEDD0EngWM6EECmyKbSDl5//fXFRz/60WLJkiXlpWyceOKJ5d9AoEpQe8EFF5QZWhDAcnU0DZYjkCXzSiDMflxxxRVl2byO7R1zzDHlOsrNk4ajJdVlIwHsbKN4DhiGOszffvvtqylpQAx45hXqoFHPJqi9hvHdIrgkqEyH/NJ9XNq/9dZby79gPbKj+++/fzVn0v33378ma0omFml5MS/E69kGwTADAS26tcfjrFPDlP+fDybfy+ibt9fTOMA4k9xtt92qOS9KA2IOSNaLAxPx2nReKpZHGZqHfOzS/OK/p1qGPrVkRtMhv0ks2qj8cj7ZVqRtWL+X/OO1BLIxEMwSIEf5etG8elRfS+LwRvrAPvbYY8Wf/umfVlP9IVDkEgYHbn4jGAEkXQg4i6TfTsyLTumB5Rz8cbZJeSynfw99ecAByaUVLtHwrD2wPpdjHnxw8hcs6sqmHxLl2B9o/rAP7PxjH1gN01zdxFW3brSLtGnvete7yuWsR5aWbgCgjaMt44as6E6Ql00ZlHXsscfavvVgr/90eLHdq3brtBud6C+C2Wp8wXoL1gS4ZOtfWN0ZJ0hkVpW9L+e/sLqcN7l+rNuZx/LOPJaV5cRrUY2Xr0nLDWX5nX0o27PkF+PK16xXlp9uj8dHHrlo12KLLbYop0dZI7X5IBoNOpBzIOZDjn47zOduSQJS+gZxEHIA5xlVDlYqHQ5syidY3XbbbcsDmKCV11FeiMqCg54Kg9dREcRdnZJGExXxqFfGaq+FnUafoWnRdYB2ivaKNi7aI9rA2SCIBeVRbpTNkwry/rUqigNeuXXxtj13KH6X4bU7Tg4xvueLw9tes0Px9r12Kg7ba+fypJp13t5Z522veUXn707lMtZhPvN4fcwry4/y+JuMl69Jpimb11E28ya3QbmT02u23VnnxeWdfehMb7TRRq2oLxsJYAeRWufSBQFkOnAGmaK7AHdXkjkleOUAJkDlzJSDO+68DCwjwOWslDNMDlDGOXCjI3z0r+W1lEGFEY8oYV0CXYLYPDhW2xnszCfz6vKeRtJcZPdpq2jDaB/JmBJc0h7RfzYyqzNFubRv3LBFuRG4ktmN4FYv2nLLLYtXvOIVZcyQD8QO+TTJMoaY5rX8zdeN5fztVn7dQNlpebGtuuXpei9/+cvLALYNRv4xWmQ8CVYJSuNsM5A15eBiGV0ICDL5NQweJ8IdmYF1OEMlc8pBTXmUG48LQVwuOeKII8ppxtPuCRy4nH3GY0fCHnvsUQavaVlqtz32WVQc8KZD1m6QOBvtBEHlwdL5m56d1s1j/fLSDH9ZFpdq0nW6iPXL7VXlRgBWjk+utGY6pNvpLJhcxnq8Ji5Dxfr5smo6LS8X2y33gdcmYl5a/jrbrKx5L/H5VtNrvb4j3s+a8XKsM94Z0hLzabZdllmVtcH66xevftVOxU7bbGUXAg3FypUriyuvvLK46667qjkzR9tE+0OSJG9Tui1jPgNoo+64445yHLST/EIU66fdDFifAJX10a1s2tW4l4T5Bq/1PvjBDxavf/3r16nvNDyNBLBPP/108cd//MfVVH84qAg4e+kDG/16CHSjrw8GGcCS1Y0DPsXZqv2E5gcq7N/7vd8rLwlSGa2uAk+GCLIiCEvl87utF9LlUW46j3G2DQKvWIe/DPm8kE+nWIYoI6a7yZdHuVNtA3Vl5/OmKyNfnk7H3ygvljHEPDDO50QjvvHGG1dzpcFatWpVeUVv6dKl1RyNGwPY5jUSwBLY8Y87E/0EsJwlckNVTAeysgQlecf3fgLYCI4JVKmoQpyZxo1ear+3v/3txfHHH18GsHlAVKfbOnmQla7XS7nDMuxt91N+t3UHvY+UNcz3rPFGBpZnpRrAji8D2OY1cj2tqX9QgkgufxB8xtMCeMoAwSuB6GwufXBJhjLI5h599NFl2WRkCZijv6zmB76vZO0YCGJjvNvQbR3mp8u6jTc9DHvb/ZTfbd1B76ONiqRhso5p3rzrEEaWlUCTjCmZVoJNpmfaBzfQ75UyKIugmLLpVsA0N4xJksaTwYu4aqRmNdKFYMWKFcUZZ5xRTfWPjCoIFnPdlnFXJjdX0X0h77PKfPrEpa+pK6db2WRfUVe22o+TnxNOOKHMAkrSdOxCoDPPPLM44IADPJlpUCsysASQeRAZui0jsKQ7QV2ASeCZv6aunG5lU263siVJ48WgRWqez5SRJGkWvHwsNa+RANaDW5IkzVfGOc0zAytJkjQLdCOxK0mzDGAlSZJmySxsswxgJUmSZsHgtXmNBLCm1SVJkjQoZmAlSZJmwURd8wxgpYwVkSSpH3YhaF4jAaz/sGoTv6+SJI02+8BKkiTNgnFO88zASpI0SwYw4804p3n2gZUkSVKrGMBKNcymSJL6YbvRLANYqYaXgyT1wzpjvBG8+h1olgGsJEnSLBi8Nq+RAHa99YyTJUnS/GT3geY1Ell6ZiJJkqRBMTUqSdIsmYGTmmUGVpKkWWp7O7fJJpsU2223XTWlfnkC0zwzsJIkzdKgApiLL764uOWWW4p/+Id/qOasK9a56qqrqjkzt2jRorK86667riyPcs8+++yBBrMRHPN3vjJR17xGAljPTCRJ6t2mm25aBpc5AsG6+TNx2GGHlcEr5T3wwAPFPffcUzz66KNr5g8qiD3mmGPK4Ji/0qCYgZUynnBJ6sew6owTTzyxGnvRSSedVI29qFuGk3ndglDmf+ADHyjHL7vssuL0008vzjnnnOLkk08urr/++nL54sWLy+WB8nfbbbcy4M3LTfeBgXVinGAc/O22P21nu9E8+8BKGb+vkvpBnTHoemP58uXF/vvvv1bARwB4yCGHlFnS1LHHHltmOPPgliwq8+uCxggwb7311uKGG26o5k665pprymws+xDInl599dVlsBvlnnbaadXStbOsrMc6u+++e7lOZF5jnfkYxK5evboaU1NGvgtBnMnFwdZNrDOoA4OzTC6jHHzwwfP2jFGSNJrokwraoUB7RDtIgJgiY4p03WgP77777nUCXhAIg64DuWXLlpXZ2AsuuKCcphwCUeYzj2UPPvhgGZBGOYF53/zmN4vLL7+83O5Xv/rV4vbbby+X8feSSy4py5Fma+S7EHAGx5kcQ5zF5aK/DgMH7WzE9jjLpCP7+eefX54xMj5VAN2vCI4lSe036EvIkQGl3Yu2JzKsLEsREDIv7TcbgSUBZJ24rE8gOh0CUboWELgShLItglSQ7EmxfMmSJWVQzetYN4Jk/rI/aWZ3vvAHm5rXqk+8WwDL5ZNB4CwzgmDOWjnLZeAgJOA877zzqjVnj4A4+h9JkpQjCCTQpP2JjCqX/OsyqpHlzAPYPNgNjzzySPm31yuMrEcbTDtIUqeuLy66bW++swtB81rVBzY9uwxM52eArEfn96OPPrqaM4kDkPnpZZYUByRnulQa5557btkPiIGzzuiPlG6fdTmgKZO/eUUQ+xDrRXeE6JjPfMbz9yRJUnQNIBg9/PDDy/FuGdXIbNKe0M4wkCWtC3bx2GOPlX+56pijDaXLQLRVtF0kd9gHsr3sV+ybJnkTV/NGvg9sICOKOKBCHNTpQcoBRlaWDGcaVBJERpCai7Nc5AcmZdNvh2xs4KBnmoOcMvnLWWkaNDOf/aA7AsuphNifOHNlm4wbwEpSe9HGDePmz+gaQPKE9om2qFuGk3W5RB/r4mtf+1r5tw6ZXNAu5kkg5jFE2xTZXLrURfcAtifNpdZ0IYgDl4MzAlCCwTioI8ANEYSm/Ux5Le64447ybyoOYCqANBgOXJ6JOzMRgSrZ2SOOOKLsH4QITgP7yGt5REm8PtZlO/HIEklSOxG8DisDlyZO0vE6sZx2iPYluhXUYTltEkiy0DWARAuZVhJFZHMJVhF9VglkaStpVyN51Iv09XkSSpqpVvWBjYOTM0PE2WHdQR0BLQcMCCQ58LrdkRl6PavkwCa7SkBKQB2ZXrKqKcrjbsw0ME63z3gc3JIkpWhjoo2IBEo33JAV6+ZJnTq0nfG0ANrKyLryWpIz0VaRZGGc5QS7cTNXr+jewOu5cklwHe2lNBut6gMbBzIHEUEjBwIBYt2BxLoMkbGNQLZb/6E4ULfffvvy73TiaQU86oSB8ToGp5KkXnGZnitzcec+aOuYF+0UmCaQTEU3AnRr63IEp5SV/pAB94Ck22e7sT3WY38IfpkXVxCjnLr2mP2KbTCk70OaqUYC2EE+XoKDhCxn9G/lYOkWJMbZKsFrBLDdzmA5oCiHMuv6pLI9+rhGOVxuYT2CV56LN6gnIWg02CFf0lygHYr2KMS8FNPpPLrT0U7RLjG/W1vXDQErr8m3k2I567E/+X7m03V4bRoYzyfD6AOtqTUSwA7y8RJxttfthqtULKOvDgf1VHdkItbnEVfpJQ5eS59X5nHw8TfG6UNEEJ13HehF3c1kmnvDuiFD0vw0Cie8BK+0UwSQ8QMEao5Jj+Y1EsAO8h+WSxFxZkkAOdVDmGPdyKjW3byVIoClPIJTsq2XXnpp+Te6B3DJJM4wGehGQLBLlwbWmerMM8e6BL0XXXTRmmBco8HgVVI/qDPmut5IL+/P1yznKLPdaN7I94ElCM0vS0QgmWZfWV53+SL641DOdH2CWIez2LjpigCVIDM6tMcdm6zHY7VYh+CTCoOuBEynGV7G42HROcpjffroptleSVL7zHUGjvaEoZ9EitRmCyYmJoZ+2rBixYrijDPOqKaaRYBJlpRn3sUjQaSp8J054YQTioULF1ZzJKm7lStXFldccUWxdOnSao7GzZlnnlm8/vWvr6bUhJHPwM4U2VNutCKjisieStMhk2J/Jkm9sr7QKHQjGTet6wPbK/q98sQALvfz3Lr00r40FSsiSf2wvpAnMc1rJICdC/SPjV/IuuGGG6q5kiRJg+VJTPPmbQArSVJTzMBJzTKAlSRJUqvM25u4pJkykyKpX7Zz4812o3nz9iYuaaZsiCT1y3ZuvNluNM8uBJIkSWoVA1hJkmbJDJzULPvASpI0C3YfkN+B5pmBlTJWRJL6YZJGfgeaZwArZayIJEkabY0EsGa01CYb/Md/FC/98peLl37pS12H9Z5+ulpb0rizjZPfgeYtmJiYGHq6afny5cUHP/jBakoabcc88EDxXzrDVGd3j37rW8WqnXaqpiSNs5UrVxZXXHFFsXTp0mqOxs2ZZ55ZHHDAAQayDbILgZSh+rETgaR+GLiMN//9m2cXAilD8Oo3VlI/7Ds/3lavXl2NqSmNBLAe2GqTFSeeWDxy++1lN4Fug90HJKVM1EjNMgMrZVZvumkZoE41SJIUjHOaZwZWkqRZIHixnZOa5U1ckiTNwiCD1912261YtGhR+beb7bbbrlyHYRA22WST4rDDDiuHQZQZ+8dfaVjsQiBJ0izQxg2qnfvABz5QXHzxxeVAYFknlp999tnVnJlje9ddd11ZFgPlXnXVVcXBBx9crdE/AmHKGVSALdUxAytJ0iwNugvBpptuWhxzzDHV1IsOOeSQgWU2CV6PPvro8lntBLGXXHJJceutt5bln3/++bMKYseNXUiaZx9YKbPxTTcVW59wQvHy446rHTb4/verNSVpeAhWc2Q3c6x34oknrtPtgHWZXxfwMo/g9dFHHy0DWX6I4atf/WqxZMmS4vLLLy/XYX5IyyKwXrx4cbWkKDOtp512WjnUbSuk6+Xvg2XxHlhG+VEWmejYJuuY2RXsQiBlFj78cLHhHXcUL+kyLPBnZCUlhpGkeeCBB4rdd999rWCNgI5glWUpAryTTjqpDO4CGVy6BBD4LVu2rJr7osju3n333WUQm7r++uvLeWwvtn/44YeX26BMAlCmwTy6C1Aew6WXXlpsv/325bJUdE+I9Zhm3cB2KIuyWUb5bJ/h6quvLufvv//+a7ZH8K3xNvIZWL68HJRxZlanl3X6QXkcYJztMdSd8faDioR984CTJPXi9ttvL//SdgSCNxBgpu7onFjTDYAAL/rNRuBJOSzL0c6B19YhsEWsFyj/nHPOKU4//fQ1bS/ofnDEEUeU2du8zWSagX059thjy/V4DwToebtI8BvlE6jTFrNNgtiTTz65HJhfl52eSybqmjfyGVgOEA5ahjjjy8VyBg6I2eBgoQN7nGEycDbIvPxA7lWcHXPgavSt3HPP4pl3v7tYcfzxtcMLm29erSlJg72JK9xzzz3lkAelZEa51J8iw/rNb36zTJZEGxgBXr5uYN2ZIEBlvyJDDILd2A5/I/gO0XazjO3Slsb6aYYZ9MGN8tPAO7LRvH+C23PPPbdaonHVqpu4OIOLAzmVHwAzRfkErhw0cbbHmWB0aueyRd32Nb88+zu/UzyxZEnx5Mc/Xjs8v/fe1ZqSNDwRCJJYoX2iHcqDwxABYQSuEewRDNZ55JFHyr/bbrtt+TcXAW6evU27G0R7mM5D3sUhkj/nnXdemQxiiO4De+yxR/k35GVFdwbeF23wLbfcUlx00UUDa/fVXq0KYDmgOIhTcVCnWI8vOEOKLzzzCFLrRIaUg+uaa65Zc/DTqZ2/bIeKBJwNUhaXTyJrGxUHy+JAJXub719gf2I9ysrfG/NYzp2gHLix35HRpQJgYJ1u25AkDRfZ12H0gyUoJYCkjYn2Ke8+EGijWJd2hLaFNiG6AdR58MEHy7/RbqV4LZlf5MFoL+r6wOKCCy4ok0LpwLyp0A5HMonsLwE8+0a7N2oJJbsRNKs1ASxfWg7OvBtBTKdnmVxO4YvElzw9S2Nd5tUdkAS99J/ltTfccEM190VRaUR5HDiURZlpYMmBT7BJpUBZlEkQmyMAZb3YHw541kv7A8X+cydoGqBedtllZeBM+RzcrEcgO4j+v5Kk/qxevboaGyzqeNqeaJ/oJpBnKFNcLWTdaJMiK1sngmPaj7SfLe0YbRF/KW+q7UVbSnsXbRR/03YXkTXmPdBWM1Aur+uWAQ4E79yLwrb4LAh4Cb55n9GFYRRwAuMTl5o18n1gAwcyB1P0g0EcKBzUcTkkxAGTHkgxXncJJoK/bmebMT8/s+Qgoj8OZ4hUCASmHPhXX311OZ8h3x77TYXBAUxwygHJekzH6wPl83w+yufsk9cysD/0AYoz2qi4JEnNG1b2jfYtfO1rX6vG6kVbQztJe5ImdnK0qbQdBLG0O7QzXA3kL20lr+dK5FQIJNkGbQ8JGbKiJFhy0Q2A7bAOATbrEZxO126xnERRJG54Pe31dO+vaWZfm9eqLgRxcMZlfA4G1B3Udf2BCPwI9Dhgu+k3CPze9763VtBbFyTnl3zirJEDkPW55EM3AabZPvsZqGTSjDD7zkAZnCXzOs76eIbfKB3MkjROBpV9oz2hLqfuB0Ei7RZtStqusE7eRYB5tCPgNdNhWyRRWJckEO0PrycBw/woC/l+BZIokUChXSII5vXpvvA3Ei1x5fL+++8vfywh2mrWSV8TKIvkDdulzWcbBNmUp/G2YGJiYug57xUrVhRnnHFGNdUfAjzO7Pji0xeVcebRHyjO9MhOcomBg4JHecQBEeuynKCXgYMtrQQCQSMHHgfJu971rmrui2I/qDDIfOb7FehgDh4TkmI+Byb7QsBa160gcGByIKevSbFtzmAjEEZUEPnBr/4due++xR+8+c3F+ut1P797fp99itUve1k1JWmcrVq1qkwi3HXXXdWcuUM7RntGu2F70JwzzzyzOOCAA8zENqhVGVhE8EnwyEHK2Vk3BJcgS0kmloO5LngFy6JfTd3P5xEcI4LjbqLCSPujpuOIDDCZWQLdfCB4nQrL6XJAEE/Qynvis0j7MWnmNrrxxmLr44+v/RWuGPwxA0mjhKQG90LQFtD2Gbw2y/6vzWskgB3kPywBZFxCx1TBXjzcmeCTg3qqOzIRwTDZ0Xi6AQOXUpimQpguuIwAObo30J81z6BSBvsV2wDrkVHmyQMxrw7Z13jyAGVQVtxNmvadlSQ1gzZuLgMYEi+0Dfzl8jqX3NUsM6/Na81NXIFL/JFZne4sk3UJWiPYnS57SvBJp3UqAYJYLsUwxO9F0/1gurPa6KxOxpeKhKA4r9jYL+azndgG02RqCUan2kZkiSmf1xHMknklmOUSlmbPakhSP2jj5jKAoU2Jm4lpB2gPpPlu4eLFi8+vxofmueeeK/7pn/6pmuofByeZxp///Ofl9BNPPFE8/vjj5c1NcaBSefzsZz8r12N5eP7554vf/u3fLoPCXs5KeT2BLkEn5fzgBz8opz/5yU+uE1jm+wX2h0CY18f45z73ufIzIJj+4Q9/WK7H39jOS17yknI7BLH5I7zS14ByeB3vlUCWbdDvin640wXX6s2r3vKWYvcPf7h49j3vqf0lLoaV++xTrS1p3PEYraVLlxYPP/xwNUfj5k1velPxile8Yk5PZMbNyN/ENVvRHYDMqJdV1Au+LyeccEKxcOHCao4kdbdy5coy80kQq/HkTVzNa91NXL0iCOEu/ui7mj/KSurGCkhSv6w3pGbN2wCWoJU+svG8OC+vq1dzeTOGJEmaXutu4uoVfVPpF8plHYNX9cNMiqR+WGfI70DzGglgh/U70dIwmIGVJPXDdqN58zYDK0lSUwxgpGY1EsB6YEuS5ivbOJmoa54ZWEmSpFnwJKZ5ZmAlSZoFkjQmasabcU7zGglg11uvkc1IA2NjJKlXBC8GMFKzzMBKNfzOSpJ6ZdKjeaZGJUmaJQOY8ea/f/MMYCVJkmbBq3bNswuBJEmzZDsnNWvBxMTE0I+65cuXFx/84AerKWm0/f766xcnHHts8fyRR1ZziuIld9xRbPylL1VTRfHcIYcUK9797mpqapuff36x4KmnqqmiePqCC4rVL3tZOZ6XO1P97I+kwVq1alVx+eWXF0uXLq3maNx86EMfKl73utfZlaBBBrBS5pgHHij+4Oiji+VnnVXNKYqXdoLMLT784WqqKAPQX9x6a7Fq552rOd1t9+Y3Fwt/9rNqqige/da3ilU77VSO5+XO1Irjjy+e/PjHqylJTVq5cmVxxRVXGMCOsTPPPLN4w+67F+s9/XQ1Z1LaRqTtwGz00u6Mg0a6EHhGovmGSmoQgaek+cF2Tht8//tlwiKGrbOrYrQZ6fKZDhvecUdV4nizD6yUWb3DDsXKKkM6FS7/b/axj1VTM7N6882L3xx8cO3w/D77VGtNIutbtx5Dvq4kSfOZGVgps+Kd7yxWvOtd1dTUNluypDzrnqlnjzii+NW119YOy089tVpr0rPveEftegz5upIkzWc+Rkuapa1OOWWdfk+SxotXGjVdsm7Z4sXFk5/4RO2Q92st72uoWY8h7qEYdwaw0izRMX+2XQkktReByyCvNG6yySbFMcccUyzuBDznnXdecdpppxXbbbddtbR3J554YjmEfDq16aabrlmeDgcffHC1xvCwnaOPPrqaaidOYKY7iaG7F0+LqRvybmvxZJm6wZu4JtkHVpoBKpB4FBY2+fSnyz6xksZPL8FLrwhUL7vssjJoPfzww4tDOoEMwexVV13Vd5B30kknlUPIp1MEzbE8Hc4///zi0ksvLZcPC9s59thjq6nBOeyww4qLLrqo/Dtsgz6J0fTMwEqZXiohzpZ/nTxmC9xhalcCSbNBMEcQ+9WvfrUM6o444ojikksuWbNsmIEkHn300eLkk08uh3POOaec3n333csgum34HPfff/8ZZa9nwmRdswxgpUyvldDy97+/vCQU7EogabYIFnHrrbeWz1AHwSw/lHD99deX02HRokXFxRdfXGZnyZIOKtNI0Mpwzz33rAmeyQYjsppkhs8+++xy27vttlu5jP2hy0PsD8vz4JH3F/tMOXXBJfMZUmSkmRfbAmV12x4Bd+wzf7ttS+3VSABrWl1tssF3vlONTY8fD8i7Emx0883VlKRxMah27pFHHin/ErClwRrB6zXXXLMmqCVAIxAkiLv77rvLPqwEcLxuGJYtW1b+JQgkq0m/VYJYsO0Ippn3wAMPlJ8HwS7zImvMa5lmXcpjHQLQHOUzpHifzGNbiLLYHp9Zuj3kmWqWx3sYBrOvzWtNBpZLJ5xhXXfddeXZVt2Z3XTizDHOUvPpXJzx5UO39Qcl9isqB40u+sLmv4BFV4JB/eKKpPFCpjUu29MXljaPIC9vdwhgWe8DH/hAsWTJkvKSPxlT5g+qmwHlRN9UgtIUgSTtcmyXNhlkbC+44IJyv26//faynY59jy4QZJdPP/30sosCr50JtkdZfEbnnntuuT3KYnsEyAT7bAf8ZVsR/A8DAbKa1YoAljMqzva23377NQcRBwQBbT9BLOum/WHy6Vyc8bHdGJjmwGF/hiX2a1CVUOqWW24pBw0Oz2elO0HwV7qk8ULwMqgMHEEpQSGBIIEXWcO4XB/ZVQI02gmWMU57yBAB2mySH5RLkojh6quvLp9CwD4REKbSLg4Es7E/dHcIMc4+gjYVaVeIvNxeRMaX7d1www3V3KK84YzPLg+2m2AA27yRD2D5kjJwAHH2xlkUX1AOAL7EdR3LOZAYBoWKhG0ycNbIQdutMz3z8vlMT7c/LB9UwNrL9tTdqj33rMZ6xw1d6aNNeCIB3QkkzX/DuHxM8BeZ1cge0t5FMAiSKrRFMdDlgLZytplGymAgECSIjZu5uom2K99uXLKPy/5168U6/ei2PaYH8f7VDiMfwEYgRh+X9EvJWRsHVXomF5dc4uyRIb/sMlsc0HEgx1kuGU22RQUSl3vAvpM9jm4P/M0zt7FOLK/rv8Rr2Eb6XqjEmEdXg5Bvj+WxPZalmVfGecag1rW6qmz7QT/YvCsBN3TZlUAaD4PIwBHoUafn/UK5NE4/V1CXR9B3//33r0mupAOX7meK9o22NQba2qmCV0TbnCdh2FfE/sZ6MR9pP99exf6wvXSbxAC0k2n5TbEPbPNGPoC94447yi99XLrncgZfWA4IDur4IvOFJXjjL2eM9CMCr0nPWAchDsb0oGafODvmskr0w2F/2Dbz2B9eR5CbBrGxDpUT+80BWJdV7kW+PfYvtsdnSPmB8dlUcloXTySo60qw4KmnqjmS5qtBBDC0EWRVSY5Qb9OO0LbQ7jEPtC8PPvhgWb/TLkYAyHq0d3Stm0lQOBvRHhOAR/vG/tD+gHYc0eaQqIn3RsCdi7Y1PoM884zYXmyDsgj8+Qx4DSJg5jNl+TBtcNdd1ZiaMvIBLAcGl/D5QnNmRR8XMoycpaZfaL7EfEHJwHLGSGaWdTHbX/jgYIiBjuJsl/1J+9lwIEVnerbPOqxPMMk89oezWQ4oDkb2NdahLDqhR1b5scceq0rtXZx15tujbLbD50j5gfGoVLSumWZT6roS+GxYSb3iBijaCdq0uDIXbRmJhwjuYr246sgy2gGCW4amRTvNfrPP7A9tEl0hoi8s7RLrkKiJ91YX+MeV1fgMaDMJWFOxPZZRDgPb47WxbnrPDMuHGcRu8vnPe8WtYY0EsLM9M+WsjbM0AjIOCr6UnHmScYyfueOLC85SuTTOEJnMPfbYo/w7U5zRcRAxEAxHNjPO7kJULIjgOg0SWc5AsMv+xj7HpaGQT/citpce5GyLz43gWM2gK8Hjn/1sNSVpHAzyBh7aN5IhXEUjIcFA8BWX80OsxzLajG9+85tloEtgF2inGEI+nYp2jfKmQhvDenlASXvDPrLf7Evd/pBIiXV4X5TD8ny7BKHMZ168d+axXrSzsT3WY1uUx/YoO7CPtIGUwXLa3mEhUbF5daKhZjQSwA7q4ObLyAHMjVRxIEeQGsFgHizzpZ3tpfI40Bg4ODgrTO+07AcHMKY6kGIdzZ3ZnHQ9v88+xVNWZJJmiOCMgI2raQxXXHHFOgEjWI9lsV5+VY12Mg168+lUXKVL7+qvE+1wt/1J97vuKl+6DuUQONdtlzaW98bAa2jHWY/xwHjc7DbV9uIzSl87aMQ5CzpBrJoz8l0I6CuT3owUIksZgWBcKuAgiC8zA1/49IxsJjhAKIeBAy/PvNaJbgB5X6R4jAj7GwdTBN+B7HKdeC3y18Qlo3QdkInOPztNbaPvfKfYuHPSMhv5r3RJmr8G0f9V7eZ3oHkj34UgsqdkWgnEuFTOOJf1EWeBBJaIm7YI8Li8wmX/ubjbnqwt2Nfon8r+0AeHZQTBBJ38JWCN98Y60R0gRHBKOZTHQBY4RZBNWSyjm0OUxU/opcFuBN+skwe7mrT+XXcVG80ygEX+K12S5qcy+zbAbgSSptdIALveejPfTFyuINNK0Ea/17iDkeA2squxHvNZJ/qrkqllftPIrtI3h0ot+tDm+xP9gQgq473RpzeC38D7JIjlM+C9s24E7IGy6MzPdglcKYvtkelN3z/dIMA6LNfwcDMXN3VJkua3FzbbrBpTUxZMTEwMPe+9YsWK4owzzqimZobAlIxh3EVIwFrXnyVdj+VpPx2WMTCfIZ/OcfmfoJEgMDKXdSJjmm4rTLU/IV2HYJVtMi/fbmSWWYfAmP1jeXSfQC/bi3K6LR93Rz32WHHiQQcVy5J+rBvdckuxefJsRvq59nqz1lannFJs8P3vV1NF8ctrry1W7bRTNdVdvk1+8cu+tdLoWbVqVZlMWbp0aTVH4+ZPjj66OOLP/mytp86QxHj0zjurqam9/LjjyqfWhCc/8YlixbvfXU2pTmsCWKkpdNU44YQTioULF1ZzJKk7A1h96EMfKv5T598/fRKBAexwjXwfWEmSRp19YLXs1FOLpy64oPj14sXlwHSvnjn++DWvY3h+772rJeqmkQzsM888Uz76SmoDbnw7vlOZmIGV1AszsDrzzDOLAw44wBOZBpmBlTJ8X62EJPXKNk5qngGsVMPvrKReccLrSa/UrEYCWEmS5itOeD3pHW+ewDTPAFaSJGkWVq9ebRDbMANYSZKkWSB4NQvfrEYCWM9KJEnzme3ceDN4bZ4ZWEmSZskARmqWAawkSbNkBna8+e/fPANYSZJmyQzseDOAbV4jAawHtiRJmq94CoGaZQZWkqRZIPtmBm68+R1oXiMBrP+okqT5iquMXmmU34FmmYGVJGmWTNTI70CzDGCljJWQpH5QZ5h9G2/++zfPm7ikjN9XSf2gzvDEV7YdzbIPrCRJs2TwMt6Mc5pnFwJJkmbB4EXwe9AsuxBIkjRLgwpezjvvvOKqq64qLr300mrOumKdiy66qJrTv2OOOaYsIx0o78QTTyw22WSTaq3BW7RoUbmt0047rZozONttt105zAXiHGOdZpmBlSRplgYVvGy66aZlELb77ruXwV6OZYccckj5d/vtt6/m9o8glTLYXth///2Lk046qbjsssuGGsSy3WGUf/bZZ5fBcd3npvnHPrCSJM0Cwesw2jmyoTkCzBwBYV1Q2G1+6rrrritOPvnkNcODDz5Yvuawww4rl0cZoJzddtutHA/Mm24bsU6dbq9Pt5uaav1Q99purxsU45zmGcBKkjQLtHGDvny8fPnyMiOaB1xkFx999NFqatLhhx9eZh7z4Pbiiy8u56dZ1qlQ7je/+c1ynAwwIqt59NFHF1dffXWZnQX7RfkEwCznL10b0sCRdc4///w16zDkWWO2w/y8S0GsH/Ky8u2xL5F5ZZ+ZRt1+8jcPcGfL7gPNG/k+sHz5+KJN92WLdVh/pqKMdGhCk9uSJI0+Ai3QVzWQFaWtIJBM3XrrreVfuhYEMqWs+8ADD6wT8E4lAkwC6BTZWYLb2C+CRALG22+/vbjkkkvKfWD7ixcvLpeD1xx88MHl9i+//PLi7rvvnnHf1w984ANlWZRRtz3Kj/eZBtq8jv28/vrriwsuuKC45pprys8l3c9BMFHXvJEPYOPsjKHucgo4qGOd9ADuV5SRD922OyhxljzoIJby+GzsDyRJwzOM7Ns999xTBpFpAEumFSxLEbgxjzo/2pFYl8BtKtHnloFtRRtKYJqijVqyZElxxRVXlMEx67FdgsKvfvWr5TL2gaxxtDlkbXHOOeeU+8E6keHtR7RlbO/cc89dsz2CWAJHElfsbwSw7Mcdd9xRjkdSi3msQ3DL/vD6QTKAbV6rbuLqFpzGgTooHBQMfNk5cLgsEwdim7DvnCUPOwCXpHE3jACGoI8Ak4CQ+py/tE0RqKUi4CRLCQJJ5MFuLn0aAdlRAj6CvPx19I0N0b0gD3LJjiL2F+xrur8RWPYjtnf//feXfwNBKMFoni1OxfuguwFPWYj3WPcZzsbq1aurMTWlVX1g+RLn2cQ4qFMc8JytxYEcWLeXjCQHBQNnlhwciL5FaRkcBBz8cXCB+Sxnft7ZPbAOy/P9CwTqlBFnjmAbzItKIbCNuu2xXlRgXBLKX5vu53SfhyRpasPIwkb2lCREtEFkH+vEfNoP6nraAwLK6QI1AjwCVgYuw3PZn8vsw7Js2bJqrHfRFk4VqHbDZ0iXA4JtYgPaPPrSktwZJDOwzWtNBjYOwjybGAd1epBygNDvhS9pGgQSsPGl5W+v4uwtOsFTMVAG26WPDWdzEYiyTboDsJz5sTzF61iH+exf3XP8OMAoI7YJtsG8NNiMfajbHuvFZxX7HK/N9zPGNcmKSNIooC2jDSIZQbtFO5dnRkO6LkEsugW7KYJcAlYGgr1eMpOxTp6kiWQO2doINml/0na42xXTNBGUJltAP16k64A2kL6safk5yuL1JKROP/30MkBn3/KkjtqnNQEsB1kcnPFlJcDjQOVgiksXgcssSIPV3/qt3yr/xlltL+ILnp81EgxyRsdBwSURtkM3A/aFrC0HCgcxwWh0P4igkoMn1mF8JgcR26Osuu2xjH3jrBN8Nhy0zGMfYj+PPfbYNfP5HLtljMeNd5NK6tewTnzJjIZ0vE60eyQmaLOo24eBtpg2hPaYdoh2hcRItMdsNwJqkCRhHQLOtE1GdE0gOCWRQhvG+mm2lXUoK9aJ7bFt9iHWjXaaIJl1QKKI5A7tHm0tAzEE+8mg9mpVH9gIPPmCg6wkX8S6gzoOXA4o8KUlQONMLA6YbjjAIkDkQEJ+JktQyOUWtkOZBIMgaORAYx4HDeKMM/aFvkaxDl0V0gO1V1Fmuj3G+Sw4iCkzPTgZZ14aiPOZMJ8gnP2f7nMZF2ZgJfVrWCe+1O/RRjA+FZIpsS5t00zall6ROKH9iKuKaQIn0CYxj8CTdWi7aTdTtEnRZYF2l+CbQDxtqxBlsU637REj8J5ZJ64qxusIeGl7IziO9lnttWBiYmLo6Sa+LB/84Aerqf5wFsUXji80dz/yBaSieNe73lWOE4SRRSTYJKjjyxrBJssJcFlO8MgXOl2eu+WWW6qxtXFQxEGX7k96FyOPFmFbRxxxRDVnUpTJfF7H6zng0oqIA4ngmv3kQIv1Yhq8PyqK2P/0vcc6udhXgm3u3Ax0Zo9gmn8bOsZTZrfPZdxQ+Z1wwgnFwoULqzmS1N2qVavKNmLp0qXVnJmjLeDqIkmJCEBpW5iX1vXU7yxnvVS3diZH+8FAmd3aENTtT4ptRTndthfrEFSTIKDMfLv5/vAa5GWm26vbJ5YRMMfyEK9jfdrEuvcyG8Q4r3/9602ANKiRDOx66w1mM5yREUxyMBHM8WUkkEwPghQBGevyZY6M5XRnsODAZ+CyPJnJ/IxxKlQ0gW0jziQfeeSR8i/7PZfi5jSytRzgXIIhuCdwkyT1b1CBS1wuTwMsxvN2jnXyAI12kb+sO11bF+t0az9D3f6kWEZbO9X2Yh3KoD2s226+P4zXlRll8bdun3h9XBlNxeuGnZlWcxoJYAd5aSWeIUdGEnwhu4n+QHFQc9Y13cGKOHDqzu66iYMlDQLj5q5Y9thjj5V/CRgDwSxno3UIvEP03w28F6TbY5zMbHw2dSgzXsNlGwLZuHyTbk+S1JtR6DdPEoK6nzbLy+MaB60LYONsEHHG1k0sJ3jFVMHubJHNBMEyFQn9eOhzgwgQ8/458QSAPEiO98SlfgbWSTO7uOGGG8q/+fYIiON9RrBOYBo/uUc5rM8QN3xFQJufsY4zLwNJahO6l5GQoE2YybNWpbZpJIAddDBAIEhwFkHjVLhcENLxQSPo5NJ8BKgEh3QZ4A7ICEi5dEIFw76zDt0a6DubB468v8ge01eV5TEdmJeWFTe2sb0IXPlL8ExXBsohkGdfqOhA0Esgy3LO2IcZ4LfNKGRUJKlX1O0MvV411GCZ9GheIzdxrVixojjjjDOqqWYR3BGk5TddDVNdh/tcZFQHUdn0ur18W728bhzxnfEmLkm94iYubjK+6667qjkaNx/60IeK173udQayDWokAzsXuGzOA465nIIms4sEitMFhawzqDPlXreX6+V1kqSpccXGqzbjzX//5s3bADYu0cfl8biML03HM2hJ/bLeGG8GsM2btwEsj77i2as8BitueJJ6YUUkqR8Er9YbUrPmbQArSVITCF7NwErNMoCVJGkWzMBKzWskgPXMVG3i91VSPwxepeY1EsB6cKtN/L5K6ocnvRrUT+ardwawkiRJs7B69epqTE2xC4EkSbNgkkbGOc0zgJUkaZZs58ab//7Ns9OGJEmSWsU+sJIkzQLZN9u58ea/f/PMwEqSNAsEL15ClpplBlaSpFkweJWa501cUsbvq6R+kKQxUSM1ywyslPH7KqlfnvhKzTIDK9XwOyupH574jjf+/W03mmUGVqrhd1aS1CuCV9uNZjUSwEqSNJ+ZfRtvBq/NswuBJEmzMMjs23bbbVcOkqZmBlaSpFkYZPbt7LPPLq666qpi0aJF1Zx22H333YvDDjus/DuOTNQ1zwBWkqRZIHgZ9wDm4IMPLoNv/o4juxA0zwBWkqRZIHhpOoDZZJNNyozniSeeWAaNTOeYd8wxx5TrRNeEuiwp2d5YL8/8xmvy+cxjAMv22GOPcpy/zK/bn/nMDGzzGglgPTORJM1nTQYwBIhXX311mfE86aSTivPPP7+47LLL1uo7S5DKOqeddlq5zqWXXloGqXmWlGUXX3zxmvUYZ90IQCmT1xDcppjHAPYnyoxM7KabblpOS8My8jdxdTv7kyRp3NAmfuADHygDzHPOOac4+eSTi2uuuaacT/AZzjvvvHKd66+/vlzn8ssvLw4//PBq6STaVgLTRx99tCyT9b761a+WwS/Bbq8o+7rrrivH+Us5lDlOTNQ1b+QzsN3O/tpg8eLF5SBJmt+aCmBI5hCY3nrrrcU999xTBopkWhmnvWT5brvtVo6zjOCSvwSmvCZ1yCGHlH95/YMPPrhmffQTwC5fvrwcYnzcglfYhaB59oEdIs528zNeSdL801QAQ2CKBx54oPwbHnnkkfIvy+Py/f3331/+Dflrtt9++/JvOn/ZsmVlAEoZsS1Nzwxs80a+C0GvOCOl/w6XTS666KLy0kgu1mE5WV0OTvr95FlSzmCZz3qUl5dFGbwmPbjp98M8/nLgp2UyXrc/kqT5Ya4DmAhaIxOKCFBDr/1SYz2CWfXGDGzz5sVNXASSdGCnmwF9d7gLkgA174ge67CcSycEp3mWlACUfkRcPuEg3n///dfpwkCAy2vSAJbtMo+/bJPXBcaZL0man5oKYOgqgLj8D9qiaGPIptIdAMyLdop2Ke8WcPfdd5d/0zYwuiiQhSUYjiA22jak25bmyrzIwJIR5SClHw+dx4899tjyIOeAiwOWv6xz++23l+vHOnFABjqy4/TTTy8HpjmIeQ0Hdi848NmPEB3oJUnzD23coBM1cRUwHWjDaLcYSIwwj+QKyRiWccMW7Q9BJzd2gR9FYD3axzyjyvq0b7SPJGrYJk80AOsj+saS0CEJRGKI9dJMLyJoJhjmqmPetkqDNi/6wMbl+ThgEQdfBJ1xdhoHLNL1wbpUApyVRp8gDtzo+E7HeEmScoNK1NCXNQJGugCkQ7jkkkvKdokgluQKy2jz0kQJ06xHsMu+EcjS/qXYDkka1qEdJZAlyCVQ5aavcMEFF5RtIu1jOs3rA8khymed/ArlOLAPbPNaH8DGQZIeSIjpOOjr1uNATae7lRXBbATBkiSlBhXALFmypLxqVzdE28Rf1jviiCPKgSuKeUKGDChtF4/aYrjhhhtq+8BSFsujHLbDuinK4Yok6/A3ymXdFAF07FNkZMdFU11I9KLW94GNA5qDNb1kEcFo3JkZ66VBKOvEeojMbDoP3QJbSZIwagEMWVQGugZwdZHsKtlapNnVVN4tQBpl86ILAZc/OLOM/q6ITulc1gDrgP5CBKQEu5xtpliHA5jLMtFdgHWjrCgj+hEdUnVkT9epY1+g9vFsWlKvSNKM2iVkMqTRNSB+aQv0cTUZM3h2IWjegomJiaF/6itWrCjOOOOMaqo/nDmmvy6Sog8Ql1EIIDnTJFCk/yrdBpjHQRo3YRHgUk7aj5V142kBXPIAQXAc6CzniQWUS9+e6F9Ut09UFMyn31FcymEd5rF9fp0kv8Sj0USF/573vKdYb715cX4nachWrlxZXHHFFcXSpUurOaOD9iu6Dhi4Ds+ZZ55ZHHDAASY/GrRw8eLFk7ccDhEH9z/+4z9WU/3jAKTPTT4QNNLPhgDxX//1X8v1Nttss3Ka4JYO7IzjueeeK/eBA5jX3nHHHcXnPve54oQTTiiXR3D5wx/+sCyXA/4lL3lJ8bOf/az44he/WHzpS18ql4MyGFiHslieZnp//vOfrxlnn55//vlyPcrW6OOkZZ999jGAldST1atXF9/97neLhx9+uJozOmh/aAejLdRwvOlNbype8YpXGMA2qJEMLAfOBz/4wWpqbpCR5ZI/WdXoXM487sykS8C73vWucp5EBpYTm4ULF1ZzJKk7kjRXXnllcdddd1VzNG4+9KEPFa973esMYBs0NikmglW6BtDVgGfmxTjyR4tIkiRpdDUSwI7CGQmX8+N5dzyJgGwsvxNNNwP7pkqSZoo2zpt4xpv//s1rJIAdlX9Yug7Es+sYzj333K6PE9F48zKQJEmjy7tUpBqeTUvqhye9UrMMYCVJktQqBrCSJM2CV2wEs/DNGpubuCRJGgbbOPEd8ESmWWN1E5ckSYNmGyd+zMITmWbZhUDKWAlJkvrBLzd6ItOsRn6Ja8WKFcUZZ5xRTUmjzV/iktSPVatWFZdffnmxdOnSao7Gzdbb7Vhsve22xYLOf223+267FO86+verqdE1Nj8lK/XKAFZSP/gp2SuuuMIAdow98quni+dXrq6m2m3RfvsUH/sff1lNjS4zsFLmyadXFL9+5rlqSvPBkr++sNh/0b7VlDRYBLBXXnllcdddd1VzNG4e+eVTxfOr5kcXgrYEsPaBlXJ2gZXUJ/s/jjnbjcYZwEqSNAvc+OnNn+POf/+mGcBKkjQLZl9V+BVonAGslLMxktQng9gxZwK2cY0EsB7YahUvBUqSNNIaCWDtG6RW6ZxvedIlqR+2c2PONqNxZmCldbxgYyRJ0ggzAytJ0iyZqBl3xjlN8yYuKecJl6Q+magZcws6JzB+BRplBlaqYTZFUq9s46Tm2QdWynEibYMkqUe0cbZzUrPsQiBJ0ix50jvmOH/xHKZRBrBSznZIUh8IXs3AyrajWXYhkCRpFmjjzMBKzTIDK+U84ZLUJxM1sgtBsxoJYNdbzzhZLWImRZLUD5uNxhlZSjXMpkiSemaT0bhGAtjVq1dXY1ILGLxK6pN9YGUWtlmNBLAe2GqXBX5nJUkaYXYhkCRplux2NObMeTSukQDWA1vt4vdVUn+8ajPmaDZsOhplFwIp1/m+etIlqR/WGVKzzMBKNTzpktQr6wupefaBlWp40iWpV9QXBrFSs+xCINXwOyupH570jjmbjMaZgZVynXbIxkiS1BeD2EYZwErr8HKgpP5YZ4w5ch7mPRplFwIp1/m+moGVJPWMMMdQp1ELJiYmht5SL1++vHj3e/4wCwoYn8G/NmWkAXE+vY5kO+W6jPC/dPvdxtGZLmf1ujzk63WstX1U68TnkpcR723Ne6zWT61Zlox3XT+mq79rrYea16xTZjmzM6TrZq/p1VplzsR028/nd5nO3uOq1UWx2osT88qSv76w2H/RvtWUNFgrV64s7rzzzuKhhx7qVCPUK+sikcOy9C/y9WN5N91eh/XWW6+cny5L159q2/l28+lcXm6Mp9IyupWXr5PLy0/XycuLsvLPIebH31D3eYV83XSa16U/kb/++usXm2z2smLjjV/amVr3PbTNJptsUvzWwW+spkZXIwHsc889Vxz2n4/h29b1C4HppnN1y5mHutfF+t3Kncn2MF253aTrp2Wgrrx0nXT+VKI8xGvSbXQz3Tby5f1Mdyu7bv506/IXvb5uKlHWeustLBZ2KiTNHwawGiaCmSeeeKJ46qmn1tRLed2U1kcRAKWBUF2dFfPSZWm5+fL0L/hL+fnyWBbq5sW6DLGfdeWEft5LLrbB33ydvBzE8liWls0Q+5Ga7jNPx+uk20j/Uh7D1ltvXQZ+ak4jASz/yKtWrVrry9Hty1I3v9u6uXS96crnL+q2hbpypnttKn1dN72ug9hurJ+/Nl1vOnWvzV9XN69XU702389u66bz69bJ5/VTDn+Rjwcqo4ULF1ZTkjQ92ri6wAlRzyDqnW71D2J5Kl+32zpR7lTrhXzZVOumel2vm26vr5s/k32arnz+om5bqCtnutfSZtB2qDmNBLCSJEnSoHi6IEmSpFYxgJUkSVKrGMBKkiSpVQxgJUmS1CoGsJIkSWoVA1hJkiS1igGsJEmSWsUAVpIkSa1iACtJkqRWMYCVJElSqxjASpIkqVUMYCVJktQqBrCSJElqFQNYSZIktYoBrCRJklrFAFaSJEmtYgArSZKkVjGAlSRJUqsYwEqSJKlVDGAlSZLUKgawkiRJahUDWEmSJLWKAawkSZJaxQBWkiRJrWIAK0mSpFYxgJUkSVKrGMBKkiSpVQxgJUmS1CoGsJIkSWqRovj/A7KCj2M0vu2sAAAAAElFTkSuQmCC;" vertex="1" parent="1">
          <mxGeometry x="60" y="-279" width="688" height="708" as="geometry" />
        </mxCell>
        <mxCell id="qE0ic9iDEVUMZ7KSb4TQ-5" style="edgeStyle=orthogonalEdgeStyle;rounded=0;orthogonalLoop=1;jettySize=auto;html=1;strokeWidth=3;" parent="1" source="qE0ic9iDEVUMZ7KSb4TQ-4" edge="1">
          <mxGeometry relative="1" as="geometry">
            <mxPoint x="546.800048828125" y="-218.99996948242188" as="targetPoint" />
          </mxGeometry>
        </mxCell>
        <mxCell id="qE0ic9iDEVUMZ7KSb4TQ-6" style="edgeStyle=orthogonalEdgeStyle;shape=connector;rounded=0;orthogonalLoop=1;jettySize=auto;html=1;labelBackgroundColor=default;strokeColor=default;strokeWidth=3;align=center;verticalAlign=middle;fontFamily=Helvetica;fontSize=11;fontColor=default;endArrow=classic;" parent="1" source="qE0ic9iDEVUMZ7KSb4TQ-4" edge="1">
          <mxGeometry relative="1" as="geometry">
            <mxPoint x="112.40005493164062" y="-223.79995727539062" as="targetPoint" />
          </mxGeometry>
        </mxCell>
        <mxCell id="qE0ic9iDEVUMZ7KSb4TQ-4" value="&lt;span style=&quot;font-size: 17px;&quot;&gt;Side menu icon that when clicked activates the side menu&lt;/span&gt;" style="text;html=1;strokeColor=none;fillColor=none;align=center;verticalAlign=middle;whiteSpace=wrap;rounded=0;" parent="1" vertex="1">
          <mxGeometry x="360" y="-310" width="159" height="30" as="geometry" />
        </mxCell>
        <mxCell id="qE0ic9iDEVUMZ7KSb4TQ-8" style="edgeStyle=orthogonalEdgeStyle;shape=connector;rounded=0;orthogonalLoop=1;jettySize=auto;html=1;labelBackgroundColor=default;strokeColor=default;strokeWidth=3;align=center;verticalAlign=middle;fontFamily=Helvetica;fontSize=11;fontColor=default;endArrow=classic;" parent="1" source="qE0ic9iDEVUMZ7KSb4TQ-7" edge="1">
          <mxGeometry relative="1" as="geometry">
            <mxPoint x="605.2000732421875" y="-204.60000610351562" as="targetPoint" />
          </mxGeometry>
        </mxCell>
        <mxCell id="qE0ic9iDEVUMZ7KSb4TQ-9" style="edgeStyle=orthogonalEdgeStyle;shape=connector;rounded=0;orthogonalLoop=1;jettySize=auto;html=1;labelBackgroundColor=default;strokeColor=default;strokeWidth=3;align=center;verticalAlign=middle;fontFamily=Helvetica;fontSize=11;fontColor=default;endArrow=classic;" parent="1" source="qE0ic9iDEVUMZ7KSb4TQ-7" edge="1">
          <mxGeometry relative="1" as="geometry">
            <mxPoint x="192" y="-210" as="targetPoint" />
          </mxGeometry>
        </mxCell>
        <mxCell id="qE0ic9iDEVUMZ7KSb4TQ-7" value="&lt;span style=&quot;font-size: 17px;&quot;&gt;The users username&amp;nbsp;displayed at the top of the&amp;nbsp;&lt;/span&gt;" style="text;html=1;strokeColor=none;fillColor=none;align=center;verticalAlign=middle;whiteSpace=wrap;rounded=0;" parent="1" vertex="1">
          <mxGeometry x="370" y="-170" width="159" height="30" as="geometry" />
        </mxCell>
        <mxCell id="qE0ic9iDEVUMZ7KSb4TQ-11" style="edgeStyle=orthogonalEdgeStyle;shape=connector;rounded=0;orthogonalLoop=1;jettySize=auto;html=1;labelBackgroundColor=default;strokeColor=default;strokeWidth=3;align=center;verticalAlign=middle;fontFamily=Helvetica;fontSize=11;fontColor=default;endArrow=classic;exitX=0.25;exitY=1;exitDx=0;exitDy=0;" parent="1" source="qE0ic9iDEVUMZ7KSb4TQ-10" edge="1">
          <mxGeometry relative="1" as="geometry">
            <mxPoint x="688.4000854492188" y="-235" as="targetPoint" />
          </mxGeometry>
        </mxCell>
        <mxCell id="qE0ic9iDEVUMZ7KSb4TQ-12" style="edgeStyle=orthogonalEdgeStyle;shape=connector;rounded=0;orthogonalLoop=1;jettySize=auto;html=1;labelBackgroundColor=default;strokeColor=default;strokeWidth=3;align=center;verticalAlign=middle;fontFamily=Helvetica;fontSize=11;fontColor=default;endArrow=classic;" parent="1" source="qE0ic9iDEVUMZ7KSb4TQ-10" edge="1">
          <mxGeometry relative="1" as="geometry">
            <mxPoint x="258.00006103515625" y="-235.79998779296875" as="targetPoint" />
          </mxGeometry>
        </mxCell>
        <mxCell id="qE0ic9iDEVUMZ7KSb4TQ-10" value="&lt;span style=&quot;font-size: 17px;&quot;&gt;Client logo / name at&amp;nbsp; the top of the page.&lt;/span&gt;" style="text;html=1;strokeColor=none;fillColor=none;align=center;verticalAlign=middle;whiteSpace=wrap;rounded=0;" parent="1" vertex="1">
          <mxGeometry x="610" y="-380" width="159" height="30" as="geometry" />
        </mxCell>
        <mxCell id="qE0ic9iDEVUMZ7KSb4TQ-15" style="edgeStyle=orthogonalEdgeStyle;shape=connector;rounded=0;orthogonalLoop=1;jettySize=auto;html=1;labelBackgroundColor=default;strokeColor=default;strokeWidth=3;align=center;verticalAlign=middle;fontFamily=Helvetica;fontSize=11;fontColor=default;endArrow=classic;" parent="1" source="qE0ic9iDEVUMZ7KSb4TQ-14" edge="1">
          <mxGeometry relative="1" as="geometry">
            <mxPoint x="640.3999633789062" y="111.40000915527344" as="targetPoint" />
          </mxGeometry>
        </mxCell>
        <mxCell id="qE0ic9iDEVUMZ7KSb4TQ-16" style="edgeStyle=orthogonalEdgeStyle;shape=connector;rounded=0;orthogonalLoop=1;jettySize=auto;html=1;labelBackgroundColor=default;strokeColor=default;strokeWidth=3;align=center;verticalAlign=middle;fontFamily=Helvetica;fontSize=11;fontColor=default;endArrow=classic;" parent="1" source="qE0ic9iDEVUMZ7KSb4TQ-14" edge="1">
          <mxGeometry relative="1" as="geometry">
            <mxPoint x="244.39999389648438" y="117.79997253417969" as="targetPoint" />
          </mxGeometry>
        </mxCell>
        <mxCell id="qE0ic9iDEVUMZ7KSb4TQ-14" value="&lt;span style=&quot;font-size: 17px;&quot;&gt;Button to close the side menu&lt;/span&gt;" style="text;html=1;strokeColor=none;fillColor=none;align=center;verticalAlign=middle;whiteSpace=wrap;rounded=0;" parent="1" vertex="1">
          <mxGeometry x="370" y="60" width="159" height="30" as="geometry" />
        </mxCell>
        <mxCell id="qE0ic9iDEVUMZ7KSb4TQ-18" style="edgeStyle=orthogonalEdgeStyle;shape=connector;rounded=0;orthogonalLoop=1;jettySize=auto;html=1;labelBackgroundColor=default;strokeColor=default;strokeWidth=3;align=center;verticalAlign=middle;fontFamily=Helvetica;fontSize=11;fontColor=default;endArrow=classic;" parent="1" source="qE0ic9iDEVUMZ7KSb4TQ-17" edge="1">
          <mxGeometry relative="1" as="geometry">
            <mxPoint x="108.4000244140625" y="378.60003662109375" as="targetPoint" />
          </mxGeometry>
        </mxCell>
        <mxCell id="qE0ic9iDEVUMZ7KSb4TQ-19" style="edgeStyle=orthogonalEdgeStyle;shape=connector;rounded=0;orthogonalLoop=1;jettySize=auto;html=1;labelBackgroundColor=default;strokeColor=default;strokeWidth=3;align=center;verticalAlign=middle;fontFamily=Helvetica;fontSize=11;fontColor=default;endArrow=classic;" parent="1" source="qE0ic9iDEVUMZ7KSb4TQ-17" edge="1">
          <mxGeometry relative="1" as="geometry">
            <mxPoint x="623" y="376" as="targetPoint" />
          </mxGeometry>
        </mxCell>
        <mxCell id="qE0ic9iDEVUMZ7KSb4TQ-17" value="&lt;span style=&quot;font-size: 17px;&quot;&gt;The side menu, the side menu is a darker colour to show its a different element.&lt;/span&gt;" style="text;html=1;strokeColor=none;fillColor=none;align=center;verticalAlign=middle;whiteSpace=wrap;rounded=0;" parent="1" vertex="1">
          <mxGeometry x="180" y="500" width="159" height="30" as="geometry" />
        </mxCell>
        <mxCell id="qE0ic9iDEVUMZ7KSb4TQ-21" style="edgeStyle=orthogonalEdgeStyle;shape=connector;rounded=0;orthogonalLoop=1;jettySize=auto;html=1;labelBackgroundColor=default;strokeColor=default;strokeWidth=3;align=center;verticalAlign=middle;fontFamily=Helvetica;fontSize=11;fontColor=default;endArrow=classic;" parent="1" source="qE0ic9iDEVUMZ7KSb4TQ-20" edge="1">
          <mxGeometry relative="1" as="geometry">
            <mxPoint x="104.60003662109375" y="344.2000427246094" as="targetPoint" />
          </mxGeometry>
        </mxCell>
        <mxCell id="qE0ic9iDEVUMZ7KSb4TQ-23" style="edgeStyle=orthogonalEdgeStyle;shape=connector;rounded=0;orthogonalLoop=1;jettySize=auto;html=1;exitX=1;exitY=1;exitDx=0;exitDy=0;labelBackgroundColor=default;strokeColor=default;strokeWidth=3;align=center;verticalAlign=middle;fontFamily=Helvetica;fontSize=11;fontColor=default;endArrow=classic;" parent="1" source="qE0ic9iDEVUMZ7KSb4TQ-20" edge="1">
          <mxGeometry relative="1" as="geometry">
            <mxPoint x="545.4000244140625" y="338.60003662109375" as="targetPoint" />
            <Array as="points">
              <mxPoint x="-81" y="372" />
              <mxPoint x="400" y="372" />
              <mxPoint x="400" y="339" />
            </Array>
          </mxGeometry>
        </mxCell>
        <mxCell id="qE0ic9iDEVUMZ7KSb4TQ-20" value="&lt;span style=&quot;font-size: 17px;&quot;&gt;Link to logout, that will remove all data stored about the user session.&lt;/span&gt;" style="text;html=1;strokeColor=none;fillColor=none;align=center;verticalAlign=middle;whiteSpace=wrap;rounded=0;" parent="1" vertex="1">
          <mxGeometry x="-240" y="330" width="159" height="30" as="geometry" />
        </mxCell>
        <mxCell id="qE0ic9iDEVUMZ7KSb4TQ-26" style="edgeStyle=orthogonalEdgeStyle;shape=connector;rounded=0;orthogonalLoop=1;jettySize=auto;html=1;labelBackgroundColor=default;strokeColor=default;strokeWidth=3;align=center;verticalAlign=middle;fontFamily=Helvetica;fontSize=11;fontColor=default;endArrow=classic;" parent="1" source="qE0ic9iDEVUMZ7KSb4TQ-25" edge="1">
          <mxGeometry relative="1" as="geometry">
            <mxPoint x="103.800048828125" y="154.59996032714844" as="targetPoint" />
          </mxGeometry>
        </mxCell>
        <mxCell id="qE0ic9iDEVUMZ7KSb4TQ-27" style="edgeStyle=orthogonalEdgeStyle;shape=connector;rounded=0;orthogonalLoop=1;jettySize=auto;html=1;exitX=1;exitY=1;exitDx=0;exitDy=0;labelBackgroundColor=default;strokeColor=default;strokeWidth=3;align=center;verticalAlign=middle;fontFamily=Helvetica;fontSize=11;fontColor=default;endArrow=classic;" parent="1" source="qE0ic9iDEVUMZ7KSb4TQ-25" edge="1">
          <mxGeometry relative="1" as="geometry">
            <mxPoint x="100.60003662109375" y="197.79995727539062" as="targetPoint" />
            <Array as="points">
              <mxPoint x="-31" y="190" />
              <mxPoint x="50" y="190" />
              <mxPoint x="50" y="198" />
            </Array>
          </mxGeometry>
        </mxCell>
        <mxCell id="qE0ic9iDEVUMZ7KSb4TQ-25" value="&lt;span style=&quot;font-size: 17px;&quot;&gt;Links to other pages. Links are in white so the user can see them on a dark background.&lt;/span&gt;" style="text;html=1;strokeColor=none;fillColor=none;align=center;verticalAlign=middle;whiteSpace=wrap;rounded=0;" parent="1" vertex="1">
          <mxGeometry x="-190" y="140" width="159" height="30" as="geometry" />
        </mxCell>
        <mxCell id="qE0ic9iDEVUMZ7KSb4TQ-30" style="edgeStyle=orthogonalEdgeStyle;shape=connector;rounded=0;orthogonalLoop=1;jettySize=auto;html=1;labelBackgroundColor=default;strokeColor=default;strokeWidth=3;align=center;verticalAlign=middle;fontFamily=Helvetica;fontSize=11;fontColor=default;endArrow=classic;" parent="1" source="qE0ic9iDEVUMZ7KSb4TQ-28" edge="1">
          <mxGeometry relative="1" as="geometry">
            <mxPoint x="608.5999145507812" y="184.199951171875" as="targetPoint" />
          </mxGeometry>
        </mxCell>
        <mxCell id="qE0ic9iDEVUMZ7KSb4TQ-31" style="edgeStyle=orthogonalEdgeStyle;shape=connector;rounded=0;orthogonalLoop=1;jettySize=auto;html=1;exitX=0;exitY=1;exitDx=0;exitDy=0;labelBackgroundColor=default;strokeColor=default;strokeWidth=3;align=center;verticalAlign=middle;fontFamily=Helvetica;fontSize=11;fontColor=default;endArrow=classic;" parent="1" source="qE0ic9iDEVUMZ7KSb4TQ-28" edge="1">
          <mxGeometry relative="1" as="geometry">
            <mxPoint x="627.7999267578125" y="257.7999572753906" as="targetPoint" />
          </mxGeometry>
        </mxCell>
        <mxCell id="qE0ic9iDEVUMZ7KSb4TQ-28" value="&lt;span style=&quot;font-size: 17px;&quot;&gt;Links to other pages. Links are in white so the user can see them on a dark background.&lt;/span&gt;" style="text;html=1;strokeColor=none;fillColor=none;align=center;verticalAlign=middle;whiteSpace=wrap;rounded=0;" parent="1" vertex="1">
          <mxGeometry x="827" y="170" width="159" height="30" as="geometry" />
        </mxCell>
        <mxCell id="qE0ic9iDEVUMZ7KSb4TQ-35" style="edgeStyle=orthogonalEdgeStyle;shape=connector;rounded=0;orthogonalLoop=1;jettySize=auto;html=1;labelBackgroundColor=default;strokeColor=default;strokeWidth=3;align=center;verticalAlign=middle;fontFamily=Helvetica;fontSize=11;fontColor=default;endArrow=classic;" parent="1" source="qE0ic9iDEVUMZ7KSb4TQ-33" edge="1">
          <mxGeometry relative="1" as="geometry">
            <mxPoint x="294.14286876860115" y="225.04756673177076" as="targetPoint" />
          </mxGeometry>
        </mxCell>
        <mxCell id="qE0ic9iDEVUMZ7KSb4TQ-33" value="&lt;span style=&quot;font-size: 17px;&quot;&gt;menu is above any other page content,&lt;/span&gt;" style="text;html=1;strokeColor=none;fillColor=none;align=center;verticalAlign=middle;whiteSpace=wrap;rounded=0;" parent="1" vertex="1">
          <mxGeometry x="380" y="210" width="100" height="30" as="geometry" />
        </mxCell>
        <mxCell id="qE0ic9iDEVUMZ7KSb4TQ-37" style="edgeStyle=orthogonalEdgeStyle;shape=connector;rounded=0;orthogonalLoop=1;jettySize=auto;html=1;labelBackgroundColor=default;strokeColor=default;strokeWidth=3;align=center;verticalAlign=middle;fontFamily=Helvetica;fontSize=11;fontColor=default;endArrow=classic;" parent="1" source="qE0ic9iDEVUMZ7KSb4TQ-36" edge="1">
          <mxGeometry relative="1" as="geometry">
            <mxPoint x="688.047607421875" y="305.04759579613096" as="targetPoint" />
          </mxGeometry>
        </mxCell>
        <mxCell id="qE0ic9iDEVUMZ7KSb4TQ-36" value="&lt;span style=&quot;font-size: 17px;&quot;&gt;menu is above any other page content,&lt;/span&gt;" style="text;html=1;strokeColor=none;fillColor=none;align=center;verticalAlign=middle;whiteSpace=wrap;rounded=0;" parent="1" vertex="1">
          <mxGeometry x="810" y="290" width="100" height="30" as="geometry" />
        </mxCell>
        <mxCell id="qE0ic9iDEVUMZ7KSb4TQ-38" value="&lt;span style=&quot;font-size: 17px;&quot;&gt;The header has been chageded so all navigation links are in the side menu, to make it less complex as all the links will be in the same place.&lt;/span&gt;" style="text;html=1;strokeColor=none;fillColor=none;align=center;verticalAlign=middle;whiteSpace=wrap;rounded=0;" parent="1" vertex="1">
          <mxGeometry x="349" y="590" width="261" height="30" as="geometry" />
        </mxCell>
        <mxCell id="qE0ic9iDEVUMZ7KSb4TQ-42" value="&lt;font style=&quot;font-size: 36px;&quot;&gt;&lt;b&gt;Customer header&lt;/b&gt;&lt;/font&gt;" style="text;html=1;strokeColor=none;fillColor=none;align=center;verticalAlign=middle;whiteSpace=wrap;rounded=0;fontSize=11;fontFamily=Helvetica;fontColor=default;" parent="1" vertex="1">
          <mxGeometry x="269.5" y="-490" width="360" height="30" as="geometry" />
        </mxCell>
        <mxCell id="PjOMWeALQhQ13TzNTQMf-4" style="edgeStyle=orthogonalEdgeStyle;shape=connector;rounded=0;orthogonalLoop=1;jettySize=auto;html=1;labelBackgroundColor=default;strokeColor=default;strokeWidth=3;align=center;verticalAlign=middle;fontFamily=Helvetica;fontSize=11;fontColor=default;endArrow=classic;" edge="1" parent="1" source="PjOMWeALQhQ13TzNTQMf-2">
          <mxGeometry relative="1" as="geometry">
            <mxPoint x="679.3994558233967" y="-195.12629619397603" as="targetPoint" />
          </mxGeometry>
        </mxCell>
        <mxCell id="PjOMWeALQhQ13TzNTQMf-2" value="&lt;span style=&quot;font-size: 17px;&quot;&gt;Search&amp;nbsp;product, search bar to search for a product, instead of having it as a link on the side menu. That wat the user always&amp;nbsp;has access to it.&lt;/span&gt;" style="text;html=1;strokeColor=none;fillColor=none;align=center;verticalAlign=middle;whiteSpace=wrap;rounded=0;" vertex="1" parent="1">
          <mxGeometry x="790" y="-210" width="310" height="30" as="geometry" />
        </mxCell>
        <mxCell id="PjOMWeALQhQ13TzNTQMf-6" style="edgeStyle=orthogonalEdgeStyle;shape=connector;rounded=0;orthogonalLoop=1;jettySize=auto;html=1;labelBackgroundColor=default;strokeColor=default;strokeWidth=3;align=center;verticalAlign=middle;fontFamily=Helvetica;fontSize=11;fontColor=default;endArrow=classic;" edge="1" parent="1" source="PjOMWeALQhQ13TzNTQMf-5">
          <mxGeometry relative="1" as="geometry">
            <mxPoint x="132.03109901829794" y="-196.08323107267665" as="targetPoint" />
          </mxGeometry>
        </mxCell>
        <mxCell id="PjOMWeALQhQ13TzNTQMf-5" value="&lt;span style=&quot;font-size: 17px;&quot;&gt;Search&amp;nbsp;product, search bar to search for a product, instead of having it as a link on the side menu. That wat the user always&amp;nbsp;has access to it.&lt;/span&gt;" style="text;html=1;strokeColor=none;fillColor=none;align=center;verticalAlign=middle;whiteSpace=wrap;rounded=0;" vertex="1" parent="1">
          <mxGeometry x="-350" y="-210" width="310" height="30" as="geometry" />
        </mxCell>
      </root>
    </mxGraphModel>
  </diagram>
</mxfile>
